<?xml version="1.0" encoding="utf-8"?>
<svg xmlns="http://www.w3.org/2000/svg" xmlns:xlink="http://www.w3.org/1999/xlink" width="600" height="400" viewBox="0 0 2400 1600">
<defs>
  <clipPath id="clip8400">
    <rect x="0" y="0" width="2400" height="1600"/>
  </clipPath>
</defs>
<polygon clip-path="url(#clip8400)" points="
0,1600 2400,1600 2400,0 0,0 
  " fill="#ffffff" fill-rule="evenodd" fill-opacity="1"/>
<defs>
  <clipPath id="clip8401">
    <rect x="480" y="0" width="1681" height="1600"/>
  </clipPath>
</defs>
<polygon clip-path="url(#clip8400)" points="
300.111,1391.98 2352.76,1391.98 2352.76,47.2441 300.111,47.2441 
  " fill="#ffffff" fill-rule="evenodd" fill-opacity="1"/>
<defs>
  <clipPath id="clip8402">
    <rect x="300" y="47" width="2054" height="1346"/>
  </clipPath>
</defs>
<polyline clip-path="url(#clip8402)" style="stroke:#000000; stroke-width:2; stroke-opacity:0.1; fill:none" points="
  401.843,1391.98 401.843,47.2441 
  "/>
<polyline clip-path="url(#clip8402)" style="stroke:#000000; stroke-width:2; stroke-opacity:0.1; fill:none" points="
  710.04,1391.98 710.04,47.2441 
  "/>
<polyline clip-path="url(#clip8402)" style="stroke:#000000; stroke-width:2; stroke-opacity:0.1; fill:none" points="
  1018.24,1391.98 1018.24,47.2441 
  "/>
<polyline clip-path="url(#clip8402)" style="stroke:#000000; stroke-width:2; stroke-opacity:0.1; fill:none" points="
  1326.43,1391.98 1326.43,47.2441 
  "/>
<polyline clip-path="url(#clip8402)" style="stroke:#000000; stroke-width:2; stroke-opacity:0.1; fill:none" points="
  1634.63,1391.98 1634.63,47.2441 
  "/>
<polyline clip-path="url(#clip8402)" style="stroke:#000000; stroke-width:2; stroke-opacity:0.1; fill:none" points="
  1942.83,1391.98 1942.83,47.2441 
  "/>
<polyline clip-path="url(#clip8402)" style="stroke:#000000; stroke-width:2; stroke-opacity:0.1; fill:none" points="
  2251.02,1391.98 2251.02,47.2441 
  "/>
<polyline clip-path="url(#clip8402)" style="stroke:#000000; stroke-width:2; stroke-opacity:0.1; fill:none" points="
  300.111,1257.47 2352.76,1257.47 
  "/>
<polyline clip-path="url(#clip8402)" style="stroke:#000000; stroke-width:2; stroke-opacity:0.1; fill:none" points="
  300.111,988.541 2352.76,988.541 
  "/>
<polyline clip-path="url(#clip8402)" style="stroke:#000000; stroke-width:2; stroke-opacity:0.1; fill:none" points="
  300.111,719.614 2352.76,719.614 
  "/>
<polyline clip-path="url(#clip8402)" style="stroke:#000000; stroke-width:2; stroke-opacity:0.1; fill:none" points="
  300.111,450.688 2352.76,450.688 
  "/>
<polyline clip-path="url(#clip8402)" style="stroke:#000000; stroke-width:2; stroke-opacity:0.1; fill:none" points="
  300.111,181.762 2352.76,181.762 
  "/>
<polyline clip-path="url(#clip8400)" style="stroke:#000000; stroke-width:4; stroke-opacity:1; fill:none" points="
  300.111,1391.98 2352.76,1391.98 
  "/>
<polyline clip-path="url(#clip8400)" style="stroke:#000000; stroke-width:4; stroke-opacity:1; fill:none" points="
  300.111,1391.98 300.111,47.2441 
  "/>
<polyline clip-path="url(#clip8400)" style="stroke:#000000; stroke-width:4; stroke-opacity:1; fill:none" points="
  401.843,1391.98 401.843,1371.81 
  "/>
<polyline clip-path="url(#clip8400)" style="stroke:#000000; stroke-width:4; stroke-opacity:1; fill:none" points="
  710.04,1391.98 710.04,1371.81 
  "/>
<polyline clip-path="url(#clip8400)" style="stroke:#000000; stroke-width:4; stroke-opacity:1; fill:none" points="
  1018.24,1391.98 1018.24,1371.81 
  "/>
<polyline clip-path="url(#clip8400)" style="stroke:#000000; stroke-width:4; stroke-opacity:1; fill:none" points="
  1326.43,1391.98 1326.43,1371.81 
  "/>
<polyline clip-path="url(#clip8400)" style="stroke:#000000; stroke-width:4; stroke-opacity:1; fill:none" points="
  1634.63,1391.98 1634.63,1371.81 
  "/>
<polyline clip-path="url(#clip8400)" style="stroke:#000000; stroke-width:4; stroke-opacity:1; fill:none" points="
  1942.83,1391.98 1942.83,1371.81 
  "/>
<polyline clip-path="url(#clip8400)" style="stroke:#000000; stroke-width:4; stroke-opacity:1; fill:none" points="
  2251.02,1391.98 2251.02,1371.81 
  "/>
<polyline clip-path="url(#clip8400)" style="stroke:#000000; stroke-width:4; stroke-opacity:1; fill:none" points="
  300.111,1257.47 330.901,1257.47 
  "/>
<polyline clip-path="url(#clip8400)" style="stroke:#000000; stroke-width:4; stroke-opacity:1; fill:none" points="
  300.111,988.541 330.901,988.541 
  "/>
<polyline clip-path="url(#clip8400)" style="stroke:#000000; stroke-width:4; stroke-opacity:1; fill:none" points="
  300.111,719.614 330.901,719.614 
  "/>
<polyline clip-path="url(#clip8400)" style="stroke:#000000; stroke-width:4; stroke-opacity:1; fill:none" points="
  300.111,450.688 330.901,450.688 
  "/>
<polyline clip-path="url(#clip8400)" style="stroke:#000000; stroke-width:4; stroke-opacity:1; fill:none" points="
  300.111,181.762 330.901,181.762 
  "/>
<g clip-path="url(#clip8400)">
<text style="fill:#000000; fill-opacity:1; font-family:Arial,Helvetica Neue,Helvetica,sans-serif; font-size:48px; text-anchor:middle;" transform="rotate(0, 401.843, 1445.98)" x="401.843" y="1445.98">-3</text>
</g>
<g clip-path="url(#clip8400)">
<text style="fill:#000000; fill-opacity:1; font-family:Arial,Helvetica Neue,Helvetica,sans-serif; font-size:48px; text-anchor:middle;" transform="rotate(0, 710.04, 1445.98)" x="710.04" y="1445.98">-2</text>
</g>
<g clip-path="url(#clip8400)">
<text style="fill:#000000; fill-opacity:1; font-family:Arial,Helvetica Neue,Helvetica,sans-serif; font-size:48px; text-anchor:middle;" transform="rotate(0, 1018.24, 1445.98)" x="1018.24" y="1445.98">-1</text>
</g>
<g clip-path="url(#clip8400)">
<text style="fill:#000000; fill-opacity:1; font-family:Arial,Helvetica Neue,Helvetica,sans-serif; font-size:48px; text-anchor:middle;" transform="rotate(0, 1326.43, 1445.98)" x="1326.43" y="1445.98">0</text>
</g>
<g clip-path="url(#clip8400)">
<text style="fill:#000000; fill-opacity:1; font-family:Arial,Helvetica Neue,Helvetica,sans-serif; font-size:48px; text-anchor:middle;" transform="rotate(0, 1634.63, 1445.98)" x="1634.63" y="1445.98">1</text>
</g>
<g clip-path="url(#clip8400)">
<text style="fill:#000000; fill-opacity:1; font-family:Arial,Helvetica Neue,Helvetica,sans-serif; font-size:48px; text-anchor:middle;" transform="rotate(0, 1942.83, 1445.98)" x="1942.83" y="1445.98">2</text>
</g>
<g clip-path="url(#clip8400)">
<text style="fill:#000000; fill-opacity:1; font-family:Arial,Helvetica Neue,Helvetica,sans-serif; font-size:48px; text-anchor:middle;" transform="rotate(0, 2251.02, 1445.98)" x="2251.02" y="1445.98">3</text>
</g>
<g clip-path="url(#clip8400)">
<text style="fill:#000000; fill-opacity:1; font-family:Arial,Helvetica Neue,Helvetica,sans-serif; font-size:48px; text-anchor:end;" transform="rotate(0, 276.111, 1274.97)" x="276.111" y="1274.97">0.00</text>
</g>
<g clip-path="url(#clip8400)">
<text style="fill:#000000; fill-opacity:1; font-family:Arial,Helvetica Neue,Helvetica,sans-serif; font-size:48px; text-anchor:end;" transform="rotate(0, 276.111, 1006.04)" x="276.111" y="1006.04">0.25</text>
</g>
<g clip-path="url(#clip8400)">
<text style="fill:#000000; fill-opacity:1; font-family:Arial,Helvetica Neue,Helvetica,sans-serif; font-size:48px; text-anchor:end;" transform="rotate(0, 276.111, 737.114)" x="276.111" y="737.114">0.50</text>
</g>
<g clip-path="url(#clip8400)">
<text style="fill:#000000; fill-opacity:1; font-family:Arial,Helvetica Neue,Helvetica,sans-serif; font-size:48px; text-anchor:end;" transform="rotate(0, 276.111, 468.188)" x="276.111" y="468.188">0.75</text>
</g>
<g clip-path="url(#clip8400)">
<text style="fill:#000000; fill-opacity:1; font-family:Arial,Helvetica Neue,Helvetica,sans-serif; font-size:48px; text-anchor:end;" transform="rotate(0, 276.111, 199.262)" x="276.111" y="199.262">1.00</text>
</g>
<polyline clip-path="url(#clip8402)" style="stroke:#000000; stroke-width:4; stroke-opacity:1; fill:none" points="
  300.111,47.2441 2352.76,47.2441 
  "/>
<polyline clip-path="url(#clip8402)" style="stroke:#000000; stroke-width:4; stroke-opacity:1; fill:none" points="
  2352.76,1391.98 2352.76,47.2441 
  "/>
<g clip-path="url(#clip8400)">
<text style="fill:#000000; fill-opacity:1; font-family:Arial,Helvetica Neue,Helvetica,sans-serif; font-size:66px; text-anchor:middle;" transform="rotate(0, 1326.43, 1525.85)" x="1326.43" y="1525.85">t</text>
</g>
<g clip-path="url(#clip8400)">
<text style="fill:#000000; fill-opacity:1; font-family:Arial,Helvetica Neue,Helvetica,sans-serif; font-size:66px; text-anchor:middle;" transform="rotate(-90, 146.881, 719.614)" x="146.881" y="719.614">f(t)</text>
</g>
<polyline clip-path="url(#clip8402)" style="stroke:#009af9; stroke-width:6; stroke-opacity:1; fill:none" points="
  358.205,719.614 377.765,1048.07 397.325,1274.46 416.885,1353.93 436.446,1317.93 456.006,1244.72 475.566,1204.81 495.126,1220.42 514.686,1264.5 534.246,1293.66 
  553.807,1285.85 573.367,1254.09 592.927,1229.74 612.487,1233.28 632.047,1258.28 651.607,1280.12 671.168,1279.42 690.728,1258.64 710.288,1238.14 729.848,1236.65 
  749.408,1254.57 768.968,1274.5 788.529,1277.88 808.089,1262 827.649,1242.06 847.209,1236.83 866.769,1251.22 886.33,1271.71 905.89,1278.92 925.45,1265.66 
  945.01,1244 964.57,1234.47 984.13,1246.89 1003.69,1270.5 1023.25,1283.01 1042.81,1271.21 1062.37,1244.46 1081.93,1227.78 1101.49,1239.15 1121.05,1271.09 
  1140.61,1294.31 1160.17,1283.15 1179.73,1241.73 1199.29,1206.48 1218.85,1217.86 1238.41,1280.75 1257.97,1345.95 1277.53,1332.25 1297.09,1178.65 1316.65,891.004 
  1336.21,548.224 1355.77,260.581 1375.33,106.98 1394.89,93.2765 1414.45,158.476 1434.01,221.371 1453.57,232.745 1473.13,197.499 1492.69,156.083 1512.26,144.914 
  1531.82,168.14 1551.38,200.079 1570.94,211.453 1590.5,194.765 1610.06,168.018 1629.62,156.219 1649.18,168.732 1668.74,192.342 1688.3,204.761 1707.86,195.227 
  1727.42,173.568 1746.98,160.307 1766.54,167.516 1786.1,188.012 1805.66,202.395 1825.22,197.165 1844.78,177.225 1864.34,161.345 1883.9,164.729 1903.46,184.659 
  1923.02,202.576 1942.58,201.093 1962.14,180.586 1981.7,159.809 2001.26,159.107 2020.82,180.947 2040.38,205.95 2059.94,209.492 2079.5,185.134 2099.06,153.377 
  2118.62,145.57 2138.18,174.732 2157.74,218.813 2177.3,234.421 2196.86,194.506 2216.42,121.303 2235.98,85.3028 2255.54,164.765 2275.1,391.155 2294.66,719.614 
  
  "/>
<polyline clip-path="url(#clip8402)" style="stroke:#e26f46; stroke-width:8; stroke-opacity:1; fill:none" points="
  358.205,1257.47 377.765,1257.47 397.325,1257.47 416.885,1257.47 436.446,1257.47 456.006,1257.47 475.566,1257.47 495.126,1257.47 514.686,1257.47 534.246,1257.47 
  553.807,1257.47 573.367,1257.47 592.927,1257.47 612.487,1257.47 632.047,1257.47 651.607,1257.47 671.168,1257.47 690.728,1257.47 710.288,1257.47 729.848,1257.47 
  749.408,1257.47 768.968,1257.47 788.529,1257.47 808.089,1257.47 827.649,1257.47 847.209,1257.47 866.769,1257.47 886.33,1257.47 905.89,1257.47 925.45,1257.47 
  945.01,1257.47 964.57,1257.47 984.13,1257.47 1003.69,1257.47 1023.25,1257.47 1042.81,1257.47 1062.37,1257.47 1081.93,1257.47 1101.49,1257.47 1121.05,1257.47 
  1140.61,1257.47 1160.17,1257.47 1179.73,1257.47 1199.29,1257.47 1218.85,1257.47 1238.41,1257.47 1257.97,1257.47 1277.53,1257.47 1297.09,1257.47 1316.65,1257.47 
  1336.21,181.762 1355.77,181.762 1375.33,181.762 1394.89,181.762 1414.45,181.762 1434.01,181.762 1453.57,181.762 1473.13,181.762 1492.69,181.762 1512.26,181.762 
  1531.82,181.762 1551.38,181.762 1570.94,181.762 1590.5,181.762 1610.06,181.762 1629.62,181.762 1649.18,181.762 1668.74,181.762 1688.3,181.762 1707.86,181.762 
  1727.42,181.762 1746.98,181.762 1766.54,181.762 1786.1,181.762 1805.66,181.762 1825.22,181.762 1844.78,181.762 1864.34,181.762 1883.9,181.762 1903.46,181.762 
  1923.02,181.762 1942.58,181.762 1962.14,181.762 1981.7,181.762 2001.26,181.762 2020.82,181.762 2040.38,181.762 2059.94,181.762 2079.5,181.762 2099.06,181.762 
  2118.62,181.762 2138.18,181.762 2157.74,181.762 2177.3,181.762 2196.86,181.762 2216.42,181.762 2235.98,181.762 2255.54,181.762 2275.1,181.762 2294.66,181.762 
  
  "/>
<polygon clip-path="url(#clip8400)" points="
1888.32,312.204 2280.76,312.204 2280.76,130.764 1888.32,130.764 
  " fill="#ffffff" fill-rule="evenodd" fill-opacity="1"/>
<polyline clip-path="url(#clip8400)" style="stroke:#000000; stroke-width:4; stroke-opacity:1; fill:none" points="
  1888.32,312.204 2280.76,312.204 2280.76,130.764 1888.32,130.764 1888.32,312.204 
  "/>
<polyline clip-path="url(#clip8400)" style="stroke:#009af9; stroke-width:6; stroke-opacity:1; fill:none" points="
  1912.32,191.244 2056.32,191.244 
  "/>
<g clip-path="url(#clip8400)">
<text style="fill:#000000; fill-opacity:1; font-family:Arial,Helvetica Neue,Helvetica,sans-serif; font-size:48px; text-anchor:start;" transform="rotate(0, 2080.32, 208.744)" x="2080.32" y="208.744">Fourier</text>
</g>
<polyline clip-path="url(#clip8400)" style="stroke:#e26f46; stroke-width:8; stroke-opacity:1; fill:none" points="
  1912.32,251.724 2056.32,251.724 
  "/>
<g clip-path="url(#clip8400)">
<text style="fill:#000000; fill-opacity:1; font-family:Arial,Helvetica Neue,Helvetica,sans-serif; font-size:48px; text-anchor:start;" transform="rotate(0, 2080.32, 269.224)" x="2080.32" y="269.224">f</text>
</g>
</svg>
