<svg viewBox="0 0 330 200" xmlns="http://www.w3.org/2000/svg"><g><g><g><g><g><line x1="41.149001121520996" y1="176.89999961853027" x2="36.149001121520996" y2="176.89999961853027" style="visibility: inherit;" fill="rgb(0, 0, 0)" stroke="rgb(204, 204, 204)" stroke-width="1px"></line><line x1="41.149001121520996" y1="160.81818147139114" x2="36.149001121520996" y2="160.81818147139114" style="visibility: inherit;" fill="rgb(0, 0, 0)" stroke="rgb(204, 204, 204)" stroke-width="1px"></line><line x1="41.149001121520996" y1="144.73636332425204" x2="36.149001121520996" y2="144.73636332425204" style="visibility: inherit;" fill="rgb(0, 0, 0)" stroke="rgb(204, 204, 204)" stroke-width="1px"></line><line x1="41.149001121520996" y1="128.65454517711294" x2="36.149001121520996" y2="128.65454517711294" style="visibility: inherit;" fill="rgb(0, 0, 0)" stroke="rgb(204, 204, 204)" stroke-width="1px"></line><line x1="41.149001121520996" y1="112.5727270299738" x2="36.149001121520996" y2="112.5727270299738" style="visibility: inherit;" fill="rgb(0, 0, 0)" stroke="rgb(204, 204, 204)" stroke-width="1px"></line><line x1="41.149001121520996" y1="96.49090888283469" x2="36.149001121520996" y2="96.49090888283469" style="visibility: inherit;" fill="rgb(0, 0, 0)" stroke="rgb(204, 204, 204)" stroke-width="1px"></line><line x1="41.149001121520996" y1="80.40909073569559" x2="36.149001121520996" y2="80.40909073569559" style="visibility: inherit;" fill="rgb(0, 0, 0)" stroke="rgb(204, 204, 204)" stroke-width="1px"></line><line x1="41.149001121520996" y1="64.32727258855647" x2="36.149001121520996" y2="64.32727258855647" style="visibility: inherit;" fill="rgb(0, 0, 0)" stroke="rgb(204, 204, 204)" stroke-width="1px"></line><line x1="41.149001121520996" y1="48.245454441417344" x2="36.149001121520996" y2="48.245454441417344" style="visibility: inherit;" fill="rgb(0, 0, 0)" stroke="rgb(204, 204, 204)" stroke-width="1px"></line><line x1="41.149001121520996" y1="32.16363629427822" x2="36.149001121520996" y2="32.16363629427822" style="visibility: inherit;" fill="rgb(0, 0, 0)" stroke="rgb(204, 204, 204)" stroke-width="1px"></line><line x1="41.149001121520996" y1="16.08181814713912" x2="36.149001121520996" y2="16.08181814713912" style="visibility: inherit;" fill="rgb(0, 0, 0)" stroke="rgb(204, 204, 204)" stroke-width="1px"></line><line x1="41.149001121520996" y1="0" x2="36.149001121520996" y2="0" style="visibility: inherit;" fill="rgb(0, 0, 0)" stroke="rgb(204, 204, 204)" stroke-width="1px"></line></g><g transform="translate(31.149001121520996, 0)"><text style="text-anchor: end; visibility: hidden; font-family: Roboto, sans-serif; font-size: 12px; font-weight: 200;" x="0" y="176.89999961853027" dx="0em" dy="0.3em" fill="rgb(255, 255, 255)" stroke="none" stroke-width="1px">-50</text><text style="text-anchor: end; visibility: inherit; font-family: Roboto, sans-serif; font-size: 12px; font-weight: 200;" x="0" y="160.81818147139114" dx="0em" dy="0.3em" fill="rgb(255, 255, 255)" stroke="none" stroke-width="1px">0</text><text style="text-anchor: end; visibility: hidden; font-family: Roboto, sans-serif; font-size: 12px; font-weight: 200;" x="0" y="144.73636332425204" dx="0em" dy="0.3em" fill="rgb(255, 255, 255)" stroke="none" stroke-width="1px">50</text><text style="text-anchor: end; visibility: inherit; font-family: Roboto, sans-serif; font-size: 12px; font-weight: 200;" x="0" y="128.65454517711294" dx="0em" dy="0.3em" fill="rgb(255, 255, 255)" stroke="none" stroke-width="1px">100</text><text style="text-anchor: end; visibility: hidden; font-family: Roboto, sans-serif; font-size: 12px; font-weight: 200;" x="0" y="112.5727270299738" dx="0em" dy="0.3em" fill="rgb(255, 255, 255)" stroke="none" stroke-width="1px">150</text><text style="text-anchor: end; visibility: inherit; font-family: Roboto, sans-serif; font-size: 12px; font-weight: 200;" x="0" y="96.49090888283469" dx="0em" dy="0.3em" fill="rgb(255, 255, 255)" stroke="none" stroke-width="1px">200</text><text style="text-anchor: end; visibility: hidden; font-family: Roboto, sans-serif; font-size: 12px; font-weight: 200;" x="0" y="80.40909073569559" dx="0em" dy="0.3em" fill="rgb(255, 255, 255)" stroke="none" stroke-width="1px">250</text><text style="text-anchor: end; visibility: inherit; font-family: Roboto, sans-serif; font-size: 12px; font-weight: 200;" x="0" y="64.32727258855647" dx="0em" dy="0.3em" fill="rgb(255, 255, 255)" stroke="none" stroke-width="1px">300</text><text style="text-anchor: end; visibility: hidden; font-family: Roboto, sans-serif; font-size: 12px; font-weight: 200;" x="0" y="48.245454441417344" dx="0em" dy="0.3em" fill="rgb(255, 255, 255)" stroke="none" stroke-width="1px">350</text><text style="text-anchor: end; visibility: inherit; font-family: Roboto, sans-serif; font-size: 12px; font-weight: 200;" x="0" y="32.16363629427822" dx="0em" dy="0.3em" fill="rgb(255, 255, 255)" stroke="none" stroke-width="1px">400</text><text style="text-anchor: end; visibility: hidden; font-family: Roboto, sans-serif; font-size: 12px; font-weight: 200;" x="0" y="16.08181814713912" dx="0em" dy="0.3em" fill="rgb(255, 255, 255)" stroke="none" stroke-width="1px">450</text><text style="text-anchor: end; visibility: hidden; font-family: Roboto, sans-serif; font-size: 12px; font-weight: 200;" x="0" y="0" dx="0em" dy="0.3em" fill="rgb(255, 255, 255)" stroke="none" stroke-width="1px">500</text></g><line x1="41.149001121520996" y1="0" x2="41.149001121520996" y2="176.89999961853027" fill="rgb(0, 0, 0)" stroke="rgb(204, 204, 204)" stroke-width="1px"></line></g></g><g transform="translate(41, 0)" clip-path="url(#clip_0)"><clipPath id="clip_0"><rect width="288" height="176"></rect></clipPath><g><g><g><line x1="0" y1="0" x2="0" y2="176.89999961853027" fill="rgb(0, 0, 0)" stroke="rgb(189, 189, 189)" stroke-width="1px" opacity="0.25"></line><line x1="36.106374859809875" y1="0" x2="36.106374859809875" y2="176.89999961853027" fill="rgb(0, 0, 0)" stroke="rgb(189, 189, 189)" stroke-width="1px" opacity="0.25"></line><line x1="72.21274971961975" y1="0" x2="72.21274971961975" y2="176.89999961853027" fill="rgb(0, 0, 0)" stroke="rgb(189, 189, 189)" stroke-width="1px" opacity="0.25"></line><line x1="108.31912457942963" y1="0" x2="108.31912457942963" y2="176.89999961853027" fill="rgb(0, 0, 0)" stroke="rgb(189, 189, 189)" stroke-width="1px" opacity="0.25"></line><line x1="144.4254994392395" y1="0" x2="144.4254994392395" y2="176.89999961853027" fill="rgb(0, 0, 0)" stroke="rgb(189, 189, 189)" stroke-width="1px" opacity="0.25"></line><line x1="180.53187429904938" y1="0" x2="180.53187429904938" y2="176.89999961853027" fill="rgb(0, 0, 0)" stroke="rgb(189, 189, 189)" stroke-width="1px" opacity="0.25"></line><line x1="216.63824915885925" y1="0" x2="216.63824915885925" y2="176.89999961853027" fill="rgb(0, 0, 0)" stroke="rgb(189, 189, 189)" stroke-width="1px" opacity="0.25"></line><line x1="252.74462401866913" y1="0" x2="252.74462401866913" y2="176.89999961853027" fill="rgb(0, 0, 0)" stroke="rgb(189, 189, 189)" stroke-width="1px" opacity="0.25"></line><line x1="288.850998878479" y1="0" x2="288.850998878479" y2="176.89999961853027" fill="rgb(0, 0, 0)" stroke="rgb(189, 189, 189)" stroke-width="1px" opacity="0.25"></line></g><g><line x1="0" y1="176.89999961853027" x2="288.850998878479" y2="176.89999961853027" fill="rgb(0, 0, 0)" stroke="rgb(189, 189, 189)" stroke-width="1px" opacity="0.25"></line><line x1="0" y1="160.81818147139114" x2="288.850998878479" y2="160.81818147139114" fill="rgb(0, 0, 0)" stroke="rgb(189, 189, 189)" stroke-width="1px" opacity="0.25"></line><line x1="0" y1="144.73636332425204" x2="288.850998878479" y2="144.73636332425204" fill="rgb(0, 0, 0)" stroke="rgb(189, 189, 189)" stroke-width="1px" opacity="0.25"></line><line x1="0" y1="128.65454517711294" x2="288.850998878479" y2="128.65454517711294" fill="rgb(0, 0, 0)" stroke="rgb(189, 189, 189)" stroke-width="1px" opacity="0.25"></line><line x1="0" y1="112.5727270299738" x2="288.850998878479" y2="112.5727270299738" fill="rgb(0, 0, 0)" stroke="rgb(189, 189, 189)" stroke-width="1px" opacity="0.25"></line><line x1="0" y1="96.49090888283469" x2="288.850998878479" y2="96.49090888283469" fill="rgb(0, 0, 0)" stroke="rgb(189, 189, 189)" stroke-width="1px" opacity="0.25"></line><line x1="0" y1="80.40909073569559" x2="288.850998878479" y2="80.40909073569559" fill="rgb(0, 0, 0)" stroke="rgb(189, 189, 189)" stroke-width="1px" opacity="0.25"></line><line x1="0" y1="64.32727258855647" x2="288.850998878479" y2="64.32727258855647" fill="rgb(0, 0, 0)" stroke="rgb(189, 189, 189)" stroke-width="1px" opacity="0.25"></line><line x1="0" y1="48.245454441417344" x2="288.850998878479" y2="48.245454441417344" fill="rgb(0, 0, 0)" stroke="rgb(189, 189, 189)" stroke-width="1px" opacity="0.25"></line><line x1="0" y1="32.16363629427822" x2="288.850998878479" y2="32.16363629427822" fill="rgb(0, 0, 0)" stroke="rgb(189, 189, 189)" stroke-width="1px" opacity="0.25"></line><line x1="0" y1="16.08181814713912" x2="288.850998878479" y2="16.08181814713912" fill="rgb(0, 0, 0)" stroke="rgb(189, 189, 189)" stroke-width="1px" opacity="0.25"></line><line x1="0" y1="0" x2="288.850998878479" y2="0" fill="rgb(0, 0, 0)" stroke="rgb(189, 189, 189)" stroke-width="1px" opacity="0.25"></line></g></g></g><g><g><line x1="0" y1="160.81818147139114" x2="288.850998878479" y2="160.81818147139114" fill="rgb(0, 0, 0)" stroke="rgb(153, 153, 153)" stroke-width="1.5px"></line></g></g><g><g><line x1="36.106374859809875" y1="0" x2="36.106374859809875" y2="176.89999961853027" fill="rgb(0, 0, 0)" stroke="rgb(153, 153, 153)" stroke-width="1.5px"></line></g></g><g><g><g><g><g><path style="fill: none;" stroke="rgb(51, 187, 238)" stroke-width="2px" d="M36.106374859809875,153.04101411727905L37.955021252632136,154.39879933660387L39.80366764545441,154.52325425591616L41.65231403827667,154.9351197042096L43.50096043109894,155.19080996806133L45.34960682392121,155.35199085305595L47.19825321674347,155.5133252475679L49.046899609565735,155.5998279353283L50.895546002388,155.58365896103143L52.74419239521027,155.365658496375L54.59283878803253,154.72013013254497L56.4414851808548,152.93278394542588L58.290131573677066,151.00943960686448L60.138777966499326,149.64658957204546L61.9874243593216,148.1070084717546L63.83607075214386,145.7848006971329L65.68471714496613,143.8421877923982L67.53336353778839,141.7345725837476L69.38200993061065,139.404746018554L71.23065632343292,139.32534384426785L73.07930271625519,138.319909676623L74.92794910907746,133.8876394677866L76.77659550189972,130.95627904508973L78.62524189472198,127.09498415559308L80.47388828754426,124.00287214210717L82.32253468036652,119.350079500443L84.17118107318878,117.81674161249781L86.01982746601105,118.74615946310811L87.86847385883333,119.45840466041871L89.71712025165557,123.41767530960668L91.56576664447785,128.62843439813517L93.41441303730012,133.12102062595244L95.26305943012237,136.58124324886737L97.11170582294464,138.49640279505417L98.96035221576692,138.6653254085766L100.80899860858916,135.58326130044148L102.65764500141144,130.52696053155577L104.50629139423371,124.33736529234322L106.35493778705597,115.84523825683948L108.20358417987823,113.50152399204231L110.05223057270051,113.83122958481938L111.90087696552277,115.47714972573371L113.74952335834503,117.91980314074237L115.59816975116729,121.55167169000464L117.44681614398957,125.00552956623531L119.29546253681183,126.54237146854594L121.14410892963409,126.62202546270814L122.99275532245636,126.05981712563779L124.84140171527862,124.53622597722644L126.69004810810088,118.4077023725836L128.53869450092316,114.84169371947635L130.38734089374543,113.24616048528505L132.23598728656768,110.71887715956503L134.08463367938995,106.68508999001027L135.93328007221223,106.92654390974599L137.78192646503447,106.39694028259261L139.63057285785675,105.32483236760673L141.47921925067902,106.7204890706171L143.32786564350127,107.02873433057113L145.17651203632357,107.06535086560125L147.02515842914582,107.5614098475687L148.87380482196806,106.84535368727987L150.72245121479037,104.70425727037991L152.57109760761261,103.98951446487078L154.41974400043486,101.0852916939897L156.26839039325716,99.19433029381669L158.1170367860794,97.34634559398832L159.96568317890166,95.96229813970703L161.81432957172396,93.40098050090249L163.6629759645462,87.15127313533345L165.51162235736845,80.37912965452675L167.36026875019076,77.71420033299006L169.208915143013,72.6788415054351L171.05756153583525,71.06574623658662L172.90620792865755,70.71757240939053L174.7548543214798,69.05793267422807L176.60350071430207,66.28594493901146L178.45214710712435,55.46760409423536L180.3007934999466,45.958908065462005L182.14943989276887,38.03656641431924L183.99808628559114,33.20962734077582L185.8467326784134,30.792912954702494L187.69537907123566,27.150285836907866L189.5440254640579,23.751371915635595L191.39267185688018,20.295711919106257L193.24131824970246,17.10463889464415L195.0899646425247,16.57025578512178L196.93861103534698,17.90911493137852L198.78725742816926,21.031541305425886L200.6359038209915,22.485281038603258L202.48455021381378,25.265921794338947L204.33319660663605,22.10242361761163L206.1818429994583,18.77677883831801L208.03048939228057,15.926627897045009L209.87913578510285,15.153503425601167L211.7277821779251,13.260883830343854L213.57642857074737,12.985800953432515L215.42507496356964,17.746297826984396L217.2737213563919,21.931607464340715L219.1223677492142,22.20742488457497L220.97101414203644,22.356579122011553L222.81966053485868,21.036544845593394L224.668306927681,22.213723235840483L226.51695332050323,26.793043132580753L228.36559971332548,32.218225476665694L230.21424610614778,31.668012072072656L232.06289249897003,26.094441941759996L233.91153889179228,21.549937301633115L235.76018528461458,17.925274162799667L237.60883167743683,14.770425908364663L239.45747807025907,12.170830947282365L241.30612446308137,10.028764699739034L243.15477085590362,8.263702112027104L245.00341724872587,6.809290539931567L246.85206364154817,6.106742036496028L248.70071003437042,6.107507435753506L250.54935642719266,5.251092177246129L252.39800282001497,4.8120309275613735L254.2466492128372,4.0573848004431925" fill="none"></path></g></g></g></g><g opacity="0.2"><g><g><g><path style="fill: none;" stroke="rgb(51, 187, 238)" stroke-width="2px" d="M36.106374859809875,153.04101411727905L37.955021252632136,155.51761435732755L39.80366764545441,154.71030701272443L41.65231403827667,155.78457251403114L43.50096043109894,155.8360342830242L45.34960682392121,155.81995240352975L47.19825321674347,156.0322323539942L49.046899609565735,155.90036149426547L50.895546002388,155.52404723181985L52.74419239521027,154.52375794675652L54.59283878803253,152.13399967193604L56.4414851808548,145.5597528550859L58.290131573677066,142.88695423733105L60.138777966499326,143.78110293368948L61.9874243593216,141.37848013682972L63.83607075214386,135.50861528617858L65.68471714496613,135.15803282843848L67.53336353778839,132.23435701326545L69.38200993061065,128.83144615828775L71.23065632343292,138.96299159098538L73.07930271625519,133.71066919519598L74.92794910907746,113.49260722430141L76.77659550189972,117.42621856891286L78.62524189472198,109.22771081848144L80.47388828754426,109.66513646839489L82.32253468036652,97.73885954154274L84.17118107318878,110.68472314998972L86.01982746601105,123.07415477083379L87.86847385883333,122.7782499058602L89.71712025165557,141.88666495226775L91.56576664447785,152.95095632827758L93.41441303730012,154.10241448307383L95.26305943012237,152.74832507607894L97.11170582294464,147.44775796201534L98.96035221576692,139.45509483366533L100.80899860858916,121.17006809114628L102.65764500141144,106.8765448828333L104.50629139423371,95.38126441223838L106.35493778705597,76.11203363825017L108.20358417987823,102.53445398310576L110.05223057270051,115.37418191062928L111.90087696552277,123.18029535953869L113.74952335834503,129.352495495765L115.59816975116729,138.55129498515043L117.44681614398957,141.17263183391225L119.29546253681183,133.73640069316517L121.14410892963409,126.99490036646063L122.99275532245636,123.42795427929272L124.84140171527862,117.40370657555319L126.69004810810088,89.71724786450473L128.53869450092316,98.14733418887745L130.38734089374543,105.77654911050277L132.23598728656768,98.88709880520216L134.08463367938995,87.80029298194192L135.93328007221223,108.05695465368098L137.78192646503447,103.917491325316L139.63057285785675,100.30551634364735L141.47921925067902,113.25459454892246L143.32786564350127,108.47186340245334L145.17651203632357,107.2367809466206L147.02515842914582,109.8838468394609L148.87380482196806,103.49293387827785L150.72245121479037,94.68009458897677L152.57109760761261,100.64323550629356L154.41974400043486,87.4883053172649L156.26839039325716,90.34122319385875L158.1170367860794,88.69444167830034L159.96568317890166,89.48245469373528L161.81432957172396,81.40938002075889L163.6629759645462,57.891325825091286L165.51162235736845,48.6732264852836L167.36026875019076,65.23749917683689L169.208915143013,49.10422784932223L171.05756153583525,63.51353298293374L172.90620792865755,69.08748683388451L174.7548543214798,61.28780503252204L176.60350071430207,53.30800765315664L178.45214710712435,4.818116250485504L180.3007934999466,1.440934439586278L182.14943989276887,0.945611692296806L183.99808628559114,10.610780472502274L185.8467326784134,19.478297354569875L187.69537907123566,10.096170144244097L189.5440254640579,7.838276594425542L191.39267185688018,4.116941519442472L193.24131824970246,2.1646162562075477L195.0899646425247,14.068371374137183L196.93861103534698,24.177409721256584L198.78725742816926,35.65017329071045L200.6359038209915,29.291425928934263L202.48455021381378,38.28437588845686L204.33319660663605,7.291500666760531L206.1818429994583,3.2067149311620504L208.03048939228057,2.582739601808029L209.87913578510285,11.533875263658022L211.7277821779251,4.399983089322181L213.57642857074737,11.697912949738935L215.42507496356964,40.03407848811064L217.2737213563919,41.526466108072476L219.1223677492142,23.49875189135465L220.97101414203644,23.05489214000356L222.81966053485868,14.856384389572137L224.668306927681,27.725058411892967L226.51695332050323,48.23258623854204L228.36559971332548,57.61794276904019L230.21424610614778,29.092012954399785L232.06289249897003,0L233.91153889179228,0.273392871613936L235.76018528461458,0.9552603905625795L237.60883167743683,0L239.45747807025907,0L241.30612446308137,0L243.15477085590362,0L245.00341724872587,0L246.85206364154817,2.8175376803588708L248.70071003437042,6.111090895912864L250.54935642719266,1.2415116494889795L252.39800282001497,2.7564259861547167L254.2466492128372,0.5242688420867929" fill="none"></path></g></g></g></g></g></g><g transform="translate(41, 176)" clip-path="url(#clip_1)"><clipPath id="clip_1"><rect width="288" height="23"></rect></clipPath><g><g><line x1="0" y1="0" x2="0" y2="5" style="visibility: inherit;" fill="rgb(0, 0, 0)" stroke="rgb(204, 204, 204)" stroke-width="1px"></line><line x1="36.106374859809875" y1="0" x2="36.106374859809875" y2="5" style="visibility: inherit;" fill="rgb(0, 0, 0)" stroke="rgb(204, 204, 204)" stroke-width="1px"></line><line x1="72.21274971961975" y1="0" x2="72.21274971961975" y2="5" style="visibility: inherit;" fill="rgb(0, 0, 0)" stroke="rgb(204, 204, 204)" stroke-width="1px"></line><line x1="108.31912457942963" y1="0" x2="108.31912457942963" y2="5" style="visibility: inherit;" fill="rgb(0, 0, 0)" stroke="rgb(204, 204, 204)" stroke-width="1px"></line><line x1="144.4254994392395" y1="0" x2="144.4254994392395" y2="5" style="visibility: inherit;" fill="rgb(0, 0, 0)" stroke="rgb(204, 204, 204)" stroke-width="1px"></line><line x1="180.53187429904938" y1="0" x2="180.53187429904938" y2="5" style="visibility: inherit;" fill="rgb(0, 0, 0)" stroke="rgb(204, 204, 204)" stroke-width="1px"></line><line x1="216.63824915885925" y1="0" x2="216.63824915885925" y2="5" style="visibility: inherit;" fill="rgb(0, 0, 0)" stroke="rgb(204, 204, 204)" stroke-width="1px"></line><line x1="252.74462401866913" y1="0" x2="252.74462401866913" y2="5" style="visibility: inherit;" fill="rgb(0, 0, 0)" stroke="rgb(204, 204, 204)" stroke-width="1px"></line><line x1="288.850998878479" y1="0" x2="288.850998878479" y2="5" style="visibility: inherit;" fill="rgb(0, 0, 0)" stroke="rgb(204, 204, 204)" stroke-width="1px"></line></g><g transform="translate(0, 8)"><text style="text-anchor: middle; visibility: hidden; font-family: Roboto, sans-serif; font-size: 12px; font-weight: 200;" x="0" y="0" dx="0em" dy="0.95em" fill="rgb(255, 255, 255)" stroke="none" stroke-width="1px">-5k</text><text style="text-anchor: middle; visibility: inherit; font-family: Roboto, sans-serif; font-size: 12px; font-weight: 200;" x="36.106374859809875" y="0" dx="0em" dy="0.95em" fill="rgb(255, 255, 255)" stroke="none" stroke-width="1px">0</text><text style="text-anchor: middle; visibility: inherit; font-family: Roboto, sans-serif; font-size: 12px; font-weight: 200;" x="72.21274971961975" y="0" dx="0em" dy="0.95em" fill="rgb(255, 255, 255)" stroke="none" stroke-width="1px">5k</text><text style="text-anchor: middle; visibility: inherit; font-family: Roboto, sans-serif; font-size: 12px; font-weight: 200;" x="108.31912457942963" y="0" dx="0em" dy="0.95em" fill="rgb(255, 255, 255)" stroke="none" stroke-width="1px">10k</text><text style="text-anchor: middle; visibility: inherit; font-family: Roboto, sans-serif; font-size: 12px; font-weight: 200;" x="144.4254994392395" y="0" dx="0em" dy="0.95em" fill="rgb(255, 255, 255)" stroke="none" stroke-width="1px">15k</text><text style="text-anchor: middle; visibility: inherit; font-family: Roboto, sans-serif; font-size: 12px; font-weight: 200;" x="180.53187429904938" y="0" dx="0em" dy="0.95em" fill="rgb(255, 255, 255)" stroke="none" stroke-width="1px">20k</text><text style="text-anchor: middle; visibility: inherit; font-family: Roboto, sans-serif; font-size: 12px; font-weight: 200;" x="216.63824915885925" y="0" dx="0em" dy="0.95em" fill="rgb(255, 255, 255)" stroke="none" stroke-width="1px">25k</text><text style="text-anchor: middle; visibility: inherit; font-family: Roboto, sans-serif; font-size: 12px; font-weight: 200;" x="252.74462401866913" y="0" dx="0em" dy="0.95em" fill="rgb(255, 255, 255)" stroke="none" stroke-width="1px">30k</text><text style="text-anchor: middle; visibility: hidden; font-family: Roboto, sans-serif; font-size: 12px; font-weight: 200;" x="288.850998878479" y="0" dx="0em" dy="0.95em" fill="rgb(255, 255, 255)" stroke="none" stroke-width="1px">35k</text></g><line x1="0" y1="0" x2="288.850998878479" y2="0" fill="rgb(0, 0, 0)" stroke="rgb(204, 204, 204)" stroke-width="1px"></line></g></g></g></g></svg>