<svg viewBox="0 0 330 200" xmlns="http://www.w3.org/2000/svg"><g><g><g><g><g><line x1="41.140000343322754" y1="177.49999904632568" x2="36.140000343322754" y2="177.49999904632568" style="visibility: inherit;" fill="rgb(0, 0, 0)" stroke="rgb(204, 204, 204)" stroke-width="1px"></line><line x1="41.140000343322754" y1="157.77777693006726" x2="36.140000343322754" y2="157.77777693006726" style="visibility: inherit;" fill="rgb(0, 0, 0)" stroke="rgb(204, 204, 204)" stroke-width="1px"></line><line x1="41.140000343322754" y1="138.05555481380887" x2="36.140000343322754" y2="138.05555481380887" style="visibility: inherit;" fill="rgb(0, 0, 0)" stroke="rgb(204, 204, 204)" stroke-width="1px"></line><line x1="41.140000343322754" y1="118.33333269755047" x2="36.140000343322754" y2="118.33333269755047" style="visibility: inherit;" fill="rgb(0, 0, 0)" stroke="rgb(204, 204, 204)" stroke-width="1px"></line><line x1="41.140000343322754" y1="98.61111058129205" x2="36.140000343322754" y2="98.61111058129205" style="visibility: inherit;" fill="rgb(0, 0, 0)" stroke="rgb(204, 204, 204)" stroke-width="1px"></line><line x1="41.140000343322754" y1="78.88888846503363" x2="36.140000343322754" y2="78.88888846503363" style="visibility: inherit;" fill="rgb(0, 0, 0)" stroke="rgb(204, 204, 204)" stroke-width="1px"></line><line x1="41.140000343322754" y1="59.16666634877524" x2="36.140000343322754" y2="59.16666634877524" style="visibility: inherit;" fill="rgb(0, 0, 0)" stroke="rgb(204, 204, 204)" stroke-width="1px"></line><line x1="41.140000343322754" y1="39.444444232516815" x2="36.140000343322754" y2="39.444444232516815" style="visibility: inherit;" fill="rgb(0, 0, 0)" stroke="rgb(204, 204, 204)" stroke-width="1px"></line><line x1="41.140000343322754" y1="19.72222211625842" x2="36.140000343322754" y2="19.72222211625842" style="visibility: inherit;" fill="rgb(0, 0, 0)" stroke="rgb(204, 204, 204)" stroke-width="1px"></line><line x1="41.140000343322754" y1="0" x2="36.140000343322754" y2="0" style="visibility: inherit;" fill="rgb(0, 0, 0)" stroke="rgb(204, 204, 204)" stroke-width="1px"></line></g><g transform="translate(31.140000343322754, 0)"><text style="text-anchor: end; visibility: hidden; font-family: Roboto, sans-serif; font-size: 12px; font-weight: 200;" x="0" y="177.49999904632568" dx="0em" dy="0.3em" fill="rgb(255, 255, 255)" stroke="none" stroke-width="1px">-50</text><text style="text-anchor: end; visibility: inherit; font-family: Roboto, sans-serif; font-size: 12px; font-weight: 200;" x="0" y="157.77777693006726" dx="0em" dy="0.3em" fill="rgb(255, 255, 255)" stroke="none" stroke-width="1px">0</text><text style="text-anchor: end; visibility: hidden; font-family: Roboto, sans-serif; font-size: 12px; font-weight: 200;" x="0" y="138.05555481380887" dx="0em" dy="0.3em" fill="rgb(255, 255, 255)" stroke="none" stroke-width="1px">50</text><text style="text-anchor: end; visibility: inherit; font-family: Roboto, sans-serif; font-size: 12px; font-weight: 200;" x="0" y="118.33333269755047" dx="0em" dy="0.3em" fill="rgb(255, 255, 255)" stroke="none" stroke-width="1px">100</text><text style="text-anchor: end; visibility: hidden; font-family: Roboto, sans-serif; font-size: 12px; font-weight: 200;" x="0" y="98.61111058129205" dx="0em" dy="0.3em" fill="rgb(255, 255, 255)" stroke="none" stroke-width="1px">150</text><text style="text-anchor: end; visibility: inherit; font-family: Roboto, sans-serif; font-size: 12px; font-weight: 200;" x="0" y="78.88888846503363" dx="0em" dy="0.3em" fill="rgb(255, 255, 255)" stroke="none" stroke-width="1px">200</text><text style="text-anchor: end; visibility: hidden; font-family: Roboto, sans-serif; font-size: 12px; font-weight: 200;" x="0" y="59.16666634877524" dx="0em" dy="0.3em" fill="rgb(255, 255, 255)" stroke="none" stroke-width="1px">250</text><text style="text-anchor: end; visibility: inherit; font-family: Roboto, sans-serif; font-size: 12px; font-weight: 200;" x="0" y="39.444444232516815" dx="0em" dy="0.3em" fill="rgb(255, 255, 255)" stroke="none" stroke-width="1px">300</text><text style="text-anchor: end; visibility: hidden; font-family: Roboto, sans-serif; font-size: 12px; font-weight: 200;" x="0" y="19.72222211625842" dx="0em" dy="0.3em" fill="rgb(255, 255, 255)" stroke="none" stroke-width="1px">350</text><text style="text-anchor: end; visibility: hidden; font-family: Roboto, sans-serif; font-size: 12px; font-weight: 200;" x="0" y="0" dx="0em" dy="0.3em" fill="rgb(255, 255, 255)" stroke="none" stroke-width="1px">400</text></g><line x1="41.140000343322754" y1="0" x2="41.140000343322754" y2="177.49999904632568" fill="rgb(0, 0, 0)" stroke="rgb(204, 204, 204)" stroke-width="1px"></line></g></g><g transform="translate(41, 0)" clip-path="url(#clip_0)"><clipPath id="clip_0"><rect width="288" height="177"></rect></clipPath><g><g><g><line x1="0" y1="0" x2="0" y2="177.49999904632568" fill="rgb(0, 0, 0)" stroke="rgb(189, 189, 189)" stroke-width="1px" opacity="0.25"></line><line x1="36.107499957084656" y1="0" x2="36.107499957084656" y2="177.49999904632568" fill="rgb(0, 0, 0)" stroke="rgb(189, 189, 189)" stroke-width="1px" opacity="0.25"></line><line x1="72.21499991416931" y1="0" x2="72.21499991416931" y2="177.49999904632568" fill="rgb(0, 0, 0)" stroke="rgb(189, 189, 189)" stroke-width="1px" opacity="0.25"></line><line x1="108.32249987125397" y1="0" x2="108.32249987125397" y2="177.49999904632568" fill="rgb(0, 0, 0)" stroke="rgb(189, 189, 189)" stroke-width="1px" opacity="0.25"></line><line x1="144.42999982833862" y1="0" x2="144.42999982833862" y2="177.49999904632568" fill="rgb(0, 0, 0)" stroke="rgb(189, 189, 189)" stroke-width="1px" opacity="0.25"></line><line x1="180.53749978542328" y1="0" x2="180.53749978542328" y2="177.49999904632568" fill="rgb(0, 0, 0)" stroke="rgb(189, 189, 189)" stroke-width="1px" opacity="0.25"></line><line x1="216.64499974250793" y1="0" x2="216.64499974250793" y2="177.49999904632568" fill="rgb(0, 0, 0)" stroke="rgb(189, 189, 189)" stroke-width="1px" opacity="0.25"></line><line x1="252.7524996995926" y1="0" x2="252.7524996995926" y2="177.49999904632568" fill="rgb(0, 0, 0)" stroke="rgb(189, 189, 189)" stroke-width="1px" opacity="0.25"></line><line x1="288.85999965667725" y1="0" x2="288.85999965667725" y2="177.49999904632568" fill="rgb(0, 0, 0)" stroke="rgb(189, 189, 189)" stroke-width="1px" opacity="0.25"></line></g><g><line x1="0" y1="177.49999904632568" x2="288.85999965667725" y2="177.49999904632568" fill="rgb(0, 0, 0)" stroke="rgb(189, 189, 189)" stroke-width="1px" opacity="0.25"></line><line x1="0" y1="157.77777693006726" x2="288.85999965667725" y2="157.77777693006726" fill="rgb(0, 0, 0)" stroke="rgb(189, 189, 189)" stroke-width="1px" opacity="0.25"></line><line x1="0" y1="138.05555481380887" x2="288.85999965667725" y2="138.05555481380887" fill="rgb(0, 0, 0)" stroke="rgb(189, 189, 189)" stroke-width="1px" opacity="0.25"></line><line x1="0" y1="118.33333269755047" x2="288.85999965667725" y2="118.33333269755047" fill="rgb(0, 0, 0)" stroke="rgb(189, 189, 189)" stroke-width="1px" opacity="0.25"></line><line x1="0" y1="98.61111058129205" x2="288.85999965667725" y2="98.61111058129205" fill="rgb(0, 0, 0)" stroke="rgb(189, 189, 189)" stroke-width="1px" opacity="0.25"></line><line x1="0" y1="78.88888846503363" x2="288.85999965667725" y2="78.88888846503363" fill="rgb(0, 0, 0)" stroke="rgb(189, 189, 189)" stroke-width="1px" opacity="0.25"></line><line x1="0" y1="59.16666634877524" x2="288.85999965667725" y2="59.16666634877524" fill="rgb(0, 0, 0)" stroke="rgb(189, 189, 189)" stroke-width="1px" opacity="0.25"></line><line x1="0" y1="39.444444232516815" x2="288.85999965667725" y2="39.444444232516815" fill="rgb(0, 0, 0)" stroke="rgb(189, 189, 189)" stroke-width="1px" opacity="0.25"></line><line x1="0" y1="19.72222211625842" x2="288.85999965667725" y2="19.72222211625842" fill="rgb(0, 0, 0)" stroke="rgb(189, 189, 189)" stroke-width="1px" opacity="0.25"></line><line x1="0" y1="0" x2="288.85999965667725" y2="0" fill="rgb(0, 0, 0)" stroke="rgb(189, 189, 189)" stroke-width="1px" opacity="0.25"></line></g></g></g><g><g><line x1="0" y1="157.77777693006726" x2="288.85999965667725" y2="157.77777693006726" fill="rgb(0, 0, 0)" stroke="rgb(153, 153, 153)" stroke-width="1.5px"></line></g></g><g><g><line x1="36.107499957084656" y1="0" x2="36.107499957084656" y2="177.49999904632568" fill="rgb(0, 0, 0)" stroke="rgb(153, 153, 153)" stroke-width="1.5px"></line></g></g><g><g><g><g><g><path style="fill: none;" stroke="rgb(51, 187, 238)" stroke-width="2px" d="M36.107499957084656,82.01350765668748L37.956203954887386,61.74519402492388L39.80490795269013,40.24096772802599L41.65361195049286,20.178697405446602L43.502315948295596,17.05795455021175L45.351019946098326,25.63208769685401L47.199723943901056,24.473691254797313L49.0484279417038,40.693937819319814L50.89713193950653,56.87140848346939L52.745835937309266,71.49746196382767L54.594539935112,82.72912401589254L56.44324393291473,83.65912555248129L58.29194793071747,83.86829723124781L60.1406519285202,61.015097493405065L61.98935592632294,56.96274742511363L63.83805992412567,62.7187335857165L65.6867639219284,62.40390341651698L67.53546791973115,63.26312914258285L69.38417191753388,53.34969951486712L71.2328759153366,61.85610573811027L73.08157991313935,55.181143824207346L74.93028391094208,48.66258032277284L76.77898790874481,63.50472074428455L78.62769190654754,77.08038930870855L80.47639590435028,80.5324950974783L82.32509990215301,92.08401875909337L84.17380389995574,100.18154309580515L86.02250789775849,103.58049675525965L87.87121189556123,105.81448143276135L89.71991589336395,113.52195852328258L91.56861989116669,118.31931299989215L93.41732388896942,63.83680606512606L95.26602788677215,17.1057281154445L97.1147318845749,-1.8893463730465743L98.96343588237762,-1.9805434302680065L100.81213988018035,11.715229126899208L102.6608438779831,27.91795583518411L104.50954787578583,31.234523545345567L106.35825187358857,39.88965044803054L108.20695587139129,50.35173421514617L110.05565986919403,64.19803961161756L111.90436386699677,75.50235630581395L113.75306786479949,81.85958384990586L115.60177186260223,90.69175095029732L117.45047586040498,69.61018383628036L119.2991798582077,34.38091130216946L121.14788385601044,32.451815691282114L122.99658785381318,12.103408154292243L124.8452918516159,13.49900894534459L126.69399584941864,37.83532415566995L128.54269984722137,56.869878661958445L130.39140384502412,63.3857510918711L132.24010784282683,75.43860383398142L134.08881184062957,88.79641730950492L135.93751583843232,100.34992104858294L137.78621983623503,109.82853843971344L139.63492383403778,117.97343305561608L141.48362783184052,124.3715523475236L143.33233182964324,129.57846903918147L145.181035827446,134.1264043409934L147.02973982524873,137.63734148113656L148.87844382305144,128.21369287265568L150.72714782085419,133.2889751477523L152.57585181865693,137.26524915782616L154.42455581645964,140.50544137837846L156.2732598142624,143.47212318231078L158.12196381206513,145.77628732226032L159.97066780986785,147.71165135980215L161.8193718076706,149.34273935993014L163.66807580547334,150.58411537131815L165.51677980327605,151.3812600331222L167.3654838010788,152.33419004238328L169.21418779888154,135.83718753256125L171.06289179668426,138.27449643271135L172.911595794487,141.46895780120326L174.76029979228971,144.2318535656259L176.6090037900925,146.53252161148663L178.4577077878952,148.47637231511956L180.30641178569792,149.00844065544294L182.1551157835007,150.45583820962696L184.0038197813034,151.63433107518378L185.85252377910612,152.55010176238062L187.7012277769089,153.35147171405825L189.5499317747116,154.04747929431852L191.39863577251433,154.6084461616466L193.2473397703171,155.0660242486325L195.0960437681198,127.67724586344467L196.94474776592253,107.10482846748603L198.7934517637253,92.0112309314126L200.64215576152802,81.36473315449477L202.49085975933073,94.64918988812632L204.3395637571335,105.67859556031843L206.18826775493622,114.71273110686695L208.03697175273894,122.21336497567351L209.8856757505417,103.7557293519118L211.73437974834442,113.06863671319137L213.58308374614714,95.7791248624728L215.43178774394988,106.27745012414599L217.28049174175263,115.20049603071007L219.12919573955537,122.55339802284773L220.9778997373581,100.85810644719793L222.82660373516083,58.40089980073554L224.67530773296357,55.79688034557436L226.5240117307663,57.15891633172316L228.37271572856903,74.2161800792703L230.22141972637178,64.83553127439995L232.0701237241745,79.89984481564976L233.91882772197724,93.38369562505865L235.76753171977998,104.5947090578086L237.6162357175827,113.78838137910465L239.4649397153854,102.52313309696797L241.31364371318818,111.96916776845843L243.1623477109909,99.89035662588003L245.01105170879362,109.50512277968112L246.8597557065964,117.59090642219913L248.7084597043991,102.68622820959479L250.55716370220182,112.00530156557294L252.4058677000046,91.64592065577443L254.2545716978073,83.05958334894495L256.1032756956101,79.43648935561914" fill="none"></path></g></g></g></g><g opacity="0.2"><g><g><g><path style="fill: none;" stroke="rgb(51, 187, 238)" stroke-width="2px" d="M36.107499957084656,82.01350765668748L37.956203954887386,45.0441035923506L39.80490795269013,7.920631705219529L41.65361195049286,-21.198776639846436L43.502315948295596,9.182882810633869L45.351019946098326,50.5256390717969L47.199723943901056,20.747888411203423L49.0484279417038,97.04742871170947L50.89713193950653,116.51446207811827L52.745835937309266,127.98212351383268L54.594539935112,127.72566480888463L56.44324393291473,87.495500560719L58.29194793071747,84.75165122379019L60.1406519285202,-37.341386552030144L61.98935592632294,39.25250646906238L63.83805992412567,88.19000349345674L65.6867639219284,60.99650312076353L67.53546791973115,67.1361461847002L69.38417191753388,8.360228769101157L71.2328759153366,100.67513670342183L73.08157991313935,24.58092587297686L74.93028391094208,18.667497322663102L76.77898790874481,132.01047525474877L78.62769190654754,139.898741161192L80.47639590435028,96.53947676606079L82.32509990215301,145.7383588378111L84.17380389995574,137.8455788729611L86.02250789775849,119.40831357590292L87.87121189556123,116.22730476663214L89.71991589336395,149.47537701087174L91.56861989116669,140.7121654579691L93.41732388896942,-190.60882465948816L98.96343588237762,-2.406920017450018L100.81213988018035,75.76315580563946L102.6608438779831,103.70482825615426L104.50954787578583,46.75005654542442L106.35825187358857,80.3855034641812L108.20695587139129,99.3075334935388L110.05565986919403,128.99581551651076L111.90436386699677,128.40820247747226L113.75306786479949,111.61420490907969L115.60177186260223,132.0323202880651L117.45047586040498,-29.07015093973165L119.2991798582077,-130.5289703137747L121.14788385601044,23.421366586943503L122.99658785381318,-83.15348194798014L124.8452918516159,20.03235598503482L126.69399584941864,151.76487546018808L128.54269984722137,145.98062609547142L130.39140384502412,93.89030829952713L132.24010784282683,131.86547166123532L134.08881184062957,151.3330820747771L135.93751583843232,154.43976465535178L137.78621983623503,154.20464691386465L139.63492383403778,156.105601923708L141.48362783184052,154.3259001652426L143.33233182964324,153.95598210692737L145.181035827446,155.41877721623433L147.02973982524873,154.0747624066415L148.87844382305144,84.09421171994401L150.72714782085419,157.05037831392627L152.57585181865693,155.8813470756909L154.42455581645964,155.67536908590537L156.2732598142624,157.36154035354772L158.12196381206513,156.563934398921L159.97066780986785,156.77265279833097L161.8193718076706,156.97918216154227L163.66807580547334,156.3960029623309L165.51677980327605,155.1133415418305L167.3654838010788,156.79563029605006L169.21418779888154,58.60128956144832L171.06289179668426,149.68552523828203L172.911595794487,156.4248361342324L174.76029979228971,157.16722278790556L176.6090037900925,157.30382670617436L178.4577077878952,157.5771248238801L180.30641178569792,151.49948719536843L182.1551157835007,157.2322888489732L184.0038197813034,157.15181936295707L185.85252377910612,156.83757295186493L187.7012277769089,157.10333964524764L189.5499317747116,157.30605989550676L191.39863577251433,157.2347908128666L193.2473397703171,157.2083215028841L195.0960437681198,-0.5520272119320558L196.94474776592253,10.788515329676379L198.7934517637253,21.345754381569762L200.64215576152802,31.519767930964857L202.49085975933073,156.84459927186077L204.3395637571335,157.3162664166716L206.18826775493622,157.00891038658722L208.03697175273894,157.32996846479372L209.8856757505417,17.340436376017106L211.73437974834442,156.66997527346825L213.58308374614714,14.83277461241782L215.43178774394988,155.42869986895542L217.28049174175263,156.97657435238355L219.12919573955537,156.97834809520876L220.9778997373581,-0.7153037138759948L222.82660373516083,-140.37602158465305L224.67530773296357,43.60533474699924L226.5240117307663,63.53572116199817L228.37271572856903,154.0751874804748L230.22141972637178,20.917039207820643L232.0701237241745,150.42822176325623L233.91882772197724,156.5126334417288L235.76753171977998,157.08263554019362L237.6162357175827,156.8314835811171L239.4649397153854,49.78128889675969L241.31364371318818,156.1937846189409L243.1623477109909,43.33955902549969L245.01105170879362,154.5197097582497L246.8597557065964,155.44707528412886L248.7084597043991,32.905234774649465L250.55716370220182,155.63550863357355L252.4058677000046,-3.6729990443932614L254.2545716978073,42.859913235433496L256.1032756956101,62.4738220249084" fill="none"></path></g></g></g></g></g></g><g transform="translate(41, 177)" clip-path="url(#clip_1)"><clipPath id="clip_1"><rect width="288" height="22"></rect></clipPath><g><g><line x1="0" y1="0" x2="0" y2="5" style="visibility: inherit;" fill="rgb(0, 0, 0)" stroke="rgb(204, 204, 204)" stroke-width="1px"></line><line x1="36.107499957084656" y1="0" x2="36.107499957084656" y2="5" style="visibility: inherit;" fill="rgb(0, 0, 0)" stroke="rgb(204, 204, 204)" stroke-width="1px"></line><line x1="72.21499991416931" y1="0" x2="72.21499991416931" y2="5" style="visibility: inherit;" fill="rgb(0, 0, 0)" stroke="rgb(204, 204, 204)" stroke-width="1px"></line><line x1="108.32249987125397" y1="0" x2="108.32249987125397" y2="5" style="visibility: inherit;" fill="rgb(0, 0, 0)" stroke="rgb(204, 204, 204)" stroke-width="1px"></line><line x1="144.42999982833862" y1="0" x2="144.42999982833862" y2="5" style="visibility: inherit;" fill="rgb(0, 0, 0)" stroke="rgb(204, 204, 204)" stroke-width="1px"></line><line x1="180.53749978542328" y1="0" x2="180.53749978542328" y2="5" style="visibility: inherit;" fill="rgb(0, 0, 0)" stroke="rgb(204, 204, 204)" stroke-width="1px"></line><line x1="216.64499974250793" y1="0" x2="216.64499974250793" y2="5" style="visibility: inherit;" fill="rgb(0, 0, 0)" stroke="rgb(204, 204, 204)" stroke-width="1px"></line><line x1="252.7524996995926" y1="0" x2="252.7524996995926" y2="5" style="visibility: inherit;" fill="rgb(0, 0, 0)" stroke="rgb(204, 204, 204)" stroke-width="1px"></line><line x1="288.85999965667725" y1="0" x2="288.85999965667725" y2="5" style="visibility: inherit;" fill="rgb(0, 0, 0)" stroke="rgb(204, 204, 204)" stroke-width="1px"></line></g><g transform="translate(0, 8)"><text style="text-anchor: middle; visibility: hidden; font-family: Roboto, sans-serif; font-size: 12px; font-weight: 200;" x="0" y="0" dx="0em" dy="0.95em" fill="rgb(255, 255, 255)" stroke="none" stroke-width="1px">-5k</text><text style="text-anchor: middle; visibility: inherit; font-family: Roboto, sans-serif; font-size: 12px; font-weight: 200;" x="36.107499957084656" y="0" dx="0em" dy="0.95em" fill="rgb(255, 255, 255)" stroke="none" stroke-width="1px">0</text><text style="text-anchor: middle; visibility: inherit; font-family: Roboto, sans-serif; font-size: 12px; font-weight: 200;" x="72.21499991416931" y="0" dx="0em" dy="0.95em" fill="rgb(255, 255, 255)" stroke="none" stroke-width="1px">5k</text><text style="text-anchor: middle; visibility: inherit; font-family: Roboto, sans-serif; font-size: 12px; font-weight: 200;" x="108.32249987125397" y="0" dx="0em" dy="0.95em" fill="rgb(255, 255, 255)" stroke="none" stroke-width="1px">10k</text><text style="text-anchor: middle; visibility: inherit; font-family: Roboto, sans-serif; font-size: 12px; font-weight: 200;" x="144.42999982833862" y="0" dx="0em" dy="0.95em" fill="rgb(255, 255, 255)" stroke="none" stroke-width="1px">15k</text><text style="text-anchor: middle; visibility: inherit; font-family: Roboto, sans-serif; font-size: 12px; font-weight: 200;" x="180.53749978542328" y="0" dx="0em" dy="0.95em" fill="rgb(255, 255, 255)" stroke="none" stroke-width="1px">20k</text><text style="text-anchor: middle; visibility: inherit; font-family: Roboto, sans-serif; font-size: 12px; font-weight: 200;" x="216.64499974250793" y="0" dx="0em" dy="0.95em" fill="rgb(255, 255, 255)" stroke="none" stroke-width="1px">25k</text><text style="text-anchor: middle; visibility: inherit; font-family: Roboto, sans-serif; font-size: 12px; font-weight: 200;" x="252.7524996995926" y="0" dx="0em" dy="0.95em" fill="rgb(255, 255, 255)" stroke="none" stroke-width="1px">30k</text><text style="text-anchor: middle; visibility: hidden; font-family: Roboto, sans-serif; font-size: 12px; font-weight: 200;" x="288.85999965667725" y="0" dx="0em" dy="0.95em" fill="rgb(255, 255, 255)" stroke="none" stroke-width="1px">35k</text></g><line x1="0" y1="0" x2="288.85999965667725" y2="0" fill="rgb(0, 0, 0)" stroke="rgb(204, 204, 204)" stroke-width="1px"></line></g></g></g></g></svg>