<svg viewBox="0 0 330 200" xmlns="http://www.w3.org/2000/svg"><g><g><g><g><g><line x1="41.149001121520996" y1="176.89999961853027" x2="36.149001121520996" y2="176.89999961853027" style="visibility: inherit;" fill="rgb(0, 0, 0)" stroke="rgb(204, 204, 204)" stroke-width="1px"></line><line x1="41.149001121520996" y1="157.24444410536023" x2="36.149001121520996" y2="157.24444410536023" style="visibility: inherit;" fill="rgb(0, 0, 0)" stroke="rgb(204, 204, 204)" stroke-width="1px"></line><line x1="41.149001121520996" y1="137.58888859219022" x2="36.149001121520996" y2="137.58888859219022" style="visibility: inherit;" fill="rgb(0, 0, 0)" stroke="rgb(204, 204, 204)" stroke-width="1px"></line><line x1="41.149001121520996" y1="117.9333330790202" x2="36.149001121520996" y2="117.9333330790202" style="visibility: inherit;" fill="rgb(0, 0, 0)" stroke="rgb(204, 204, 204)" stroke-width="1px"></line><line x1="41.149001121520996" y1="98.27777756585016" x2="36.149001121520996" y2="98.27777756585016" style="visibility: inherit;" fill="rgb(0, 0, 0)" stroke="rgb(204, 204, 204)" stroke-width="1px"></line><line x1="41.149001121520996" y1="78.62222205268012" x2="36.149001121520996" y2="78.62222205268012" style="visibility: inherit;" fill="rgb(0, 0, 0)" stroke="rgb(204, 204, 204)" stroke-width="1px"></line><line x1="41.149001121520996" y1="58.9666665395101" x2="36.149001121520996" y2="58.9666665395101" style="visibility: inherit;" fill="rgb(0, 0, 0)" stroke="rgb(204, 204, 204)" stroke-width="1px"></line><line x1="41.149001121520996" y1="39.31111102634006" x2="36.149001121520996" y2="39.31111102634006" style="visibility: inherit;" fill="rgb(0, 0, 0)" stroke="rgb(204, 204, 204)" stroke-width="1px"></line><line x1="41.149001121520996" y1="19.65555551317004" x2="36.149001121520996" y2="19.65555551317004" style="visibility: inherit;" fill="rgb(0, 0, 0)" stroke="rgb(204, 204, 204)" stroke-width="1px"></line><line x1="41.149001121520996" y1="0" x2="36.149001121520996" y2="0" style="visibility: inherit;" fill="rgb(0, 0, 0)" stroke="rgb(204, 204, 204)" stroke-width="1px"></line></g><g transform="translate(31.149001121520996, 0)"><text style="text-anchor: end; visibility: hidden; font-family: Roboto, sans-serif; font-size: 12px; font-weight: 200;" x="0" y="176.89999961853027" dx="0em" dy="0.3em" fill="rgb(255, 255, 255)" stroke="none" stroke-width="1px">-50</text><text style="text-anchor: end; visibility: inherit; font-family: Roboto, sans-serif; font-size: 12px; font-weight: 200;" x="0" y="157.24444410536023" dx="0em" dy="0.3em" fill="rgb(255, 255, 255)" stroke="none" stroke-width="1px">0</text><text style="text-anchor: end; visibility: hidden; font-family: Roboto, sans-serif; font-size: 12px; font-weight: 200;" x="0" y="137.58888859219022" dx="0em" dy="0.3em" fill="rgb(255, 255, 255)" stroke="none" stroke-width="1px">50</text><text style="text-anchor: end; visibility: inherit; font-family: Roboto, sans-serif; font-size: 12px; font-weight: 200;" x="0" y="117.9333330790202" dx="0em" dy="0.3em" fill="rgb(255, 255, 255)" stroke="none" stroke-width="1px">100</text><text style="text-anchor: end; visibility: hidden; font-family: Roboto, sans-serif; font-size: 12px; font-weight: 200;" x="0" y="98.27777756585016" dx="0em" dy="0.3em" fill="rgb(255, 255, 255)" stroke="none" stroke-width="1px">150</text><text style="text-anchor: end; visibility: inherit; font-family: Roboto, sans-serif; font-size: 12px; font-weight: 200;" x="0" y="78.62222205268012" dx="0em" dy="0.3em" fill="rgb(255, 255, 255)" stroke="none" stroke-width="1px">200</text><text style="text-anchor: end; visibility: hidden; font-family: Roboto, sans-serif; font-size: 12px; font-weight: 200;" x="0" y="58.9666665395101" dx="0em" dy="0.3em" fill="rgb(255, 255, 255)" stroke="none" stroke-width="1px">250</text><text style="text-anchor: end; visibility: inherit; font-family: Roboto, sans-serif; font-size: 12px; font-weight: 200;" x="0" y="39.31111102634006" dx="0em" dy="0.3em" fill="rgb(255, 255, 255)" stroke="none" stroke-width="1px">300</text><text style="text-anchor: end; visibility: hidden; font-family: Roboto, sans-serif; font-size: 12px; font-weight: 200;" x="0" y="19.65555551317004" dx="0em" dy="0.3em" fill="rgb(255, 255, 255)" stroke="none" stroke-width="1px">350</text><text style="text-anchor: end; visibility: hidden; font-family: Roboto, sans-serif; font-size: 12px; font-weight: 200;" x="0" y="0" dx="0em" dy="0.3em" fill="rgb(255, 255, 255)" stroke="none" stroke-width="1px">400</text></g><line x1="41.149001121520996" y1="0" x2="41.149001121520996" y2="176.89999961853027" fill="rgb(0, 0, 0)" stroke="rgb(204, 204, 204)" stroke-width="1px"></line></g></g><g transform="translate(41, 0)" clip-path="url(#clip_0)"><clipPath id="clip_0"><rect width="288" height="176"></rect></clipPath><g><g><g><line x1="0" y1="0" x2="0" y2="176.89999961853027" fill="rgb(0, 0, 0)" stroke="rgb(189, 189, 189)" stroke-width="1px" opacity="0.25"></line><line x1="36.106374859809875" y1="0" x2="36.106374859809875" y2="176.89999961853027" fill="rgb(0, 0, 0)" stroke="rgb(189, 189, 189)" stroke-width="1px" opacity="0.25"></line><line x1="72.21274971961975" y1="0" x2="72.21274971961975" y2="176.89999961853027" fill="rgb(0, 0, 0)" stroke="rgb(189, 189, 189)" stroke-width="1px" opacity="0.25"></line><line x1="108.31912457942963" y1="0" x2="108.31912457942963" y2="176.89999961853027" fill="rgb(0, 0, 0)" stroke="rgb(189, 189, 189)" stroke-width="1px" opacity="0.25"></line><line x1="144.4254994392395" y1="0" x2="144.4254994392395" y2="176.89999961853027" fill="rgb(0, 0, 0)" stroke="rgb(189, 189, 189)" stroke-width="1px" opacity="0.25"></line><line x1="180.53187429904938" y1="0" x2="180.53187429904938" y2="176.89999961853027" fill="rgb(0, 0, 0)" stroke="rgb(189, 189, 189)" stroke-width="1px" opacity="0.25"></line><line x1="216.63824915885925" y1="0" x2="216.63824915885925" y2="176.89999961853027" fill="rgb(0, 0, 0)" stroke="rgb(189, 189, 189)" stroke-width="1px" opacity="0.25"></line><line x1="252.74462401866913" y1="0" x2="252.74462401866913" y2="176.89999961853027" fill="rgb(0, 0, 0)" stroke="rgb(189, 189, 189)" stroke-width="1px" opacity="0.25"></line><line x1="288.850998878479" y1="0" x2="288.850998878479" y2="176.89999961853027" fill="rgb(0, 0, 0)" stroke="rgb(189, 189, 189)" stroke-width="1px" opacity="0.25"></line></g><g><line x1="0" y1="176.89999961853027" x2="288.850998878479" y2="176.89999961853027" fill="rgb(0, 0, 0)" stroke="rgb(189, 189, 189)" stroke-width="1px" opacity="0.25"></line><line x1="0" y1="157.24444410536023" x2="288.850998878479" y2="157.24444410536023" fill="rgb(0, 0, 0)" stroke="rgb(189, 189, 189)" stroke-width="1px" opacity="0.25"></line><line x1="0" y1="137.58888859219022" x2="288.850998878479" y2="137.58888859219022" fill="rgb(0, 0, 0)" stroke="rgb(189, 189, 189)" stroke-width="1px" opacity="0.25"></line><line x1="0" y1="117.9333330790202" x2="288.850998878479" y2="117.9333330790202" fill="rgb(0, 0, 0)" stroke="rgb(189, 189, 189)" stroke-width="1px" opacity="0.25"></line><line x1="0" y1="98.27777756585016" x2="288.850998878479" y2="98.27777756585016" fill="rgb(0, 0, 0)" stroke="rgb(189, 189, 189)" stroke-width="1px" opacity="0.25"></line><line x1="0" y1="78.62222205268012" x2="288.850998878479" y2="78.62222205268012" fill="rgb(0, 0, 0)" stroke="rgb(189, 189, 189)" stroke-width="1px" opacity="0.25"></line><line x1="0" y1="58.9666665395101" x2="288.850998878479" y2="58.9666665395101" fill="rgb(0, 0, 0)" stroke="rgb(189, 189, 189)" stroke-width="1px" opacity="0.25"></line><line x1="0" y1="39.31111102634006" x2="288.850998878479" y2="39.31111102634006" fill="rgb(0, 0, 0)" stroke="rgb(189, 189, 189)" stroke-width="1px" opacity="0.25"></line><line x1="0" y1="19.65555551317004" x2="288.850998878479" y2="19.65555551317004" fill="rgb(0, 0, 0)" stroke="rgb(189, 189, 189)" stroke-width="1px" opacity="0.25"></line><line x1="0" y1="0" x2="288.850998878479" y2="0" fill="rgb(0, 0, 0)" stroke="rgb(189, 189, 189)" stroke-width="1px" opacity="0.25"></line></g></g></g><g><g><line x1="0" y1="157.24444410536023" x2="288.850998878479" y2="157.24444410536023" fill="rgb(0, 0, 0)" stroke="rgb(153, 153, 153)" stroke-width="1.5px"></line></g></g><g><g><line x1="36.106374859809875" y1="0" x2="36.106374859809875" y2="176.89999961853027" fill="rgb(0, 0, 0)" stroke="rgb(153, 153, 153)" stroke-width="1.5px"></line></g></g><g><g><g><g><g><path style="fill: none;" stroke="rgb(51, 187, 238)" stroke-width="2px" d="M36.106374859809875,81.64755083576128L37.955021252632136,61.445053099584165L39.80366764545441,39.996400172058706L41.65231403827667,20.002324211789652L43.50096043109894,16.912586703969648L45.34960682392121,25.456162917056538L47.19825321674347,24.30077476326618L49.046899609565735,40.47300344212906L50.895546002388,56.58703424671666L52.74419239521027,71.14680208547436L54.59283878803253,82.30216846000926L56.4414851808548,83.21362387594435L58.290131573677066,83.43430745757287L60.138777966499326,60.67491351177176L61.9874243593216,56.65889374066438L63.83607075214386,62.39972692350297L65.68471714496613,62.10140566892598L67.53336353778839,62.970906702340486L69.38200993061065,53.082961604810166L71.23065632343292,61.554036996692325L73.07930271625519,54.91012671736885L74.92794910907746,48.41330150808629L76.77659550189972,63.204577298915844L78.62524189472198,76.74047161499637L80.47388828754426,80.19082069358747L82.32253468036652,91.70002983009131L84.17118107318878,99.77822557141579L86.01982746601105,103.1723027687719L87.86847385883333,105.40502485073576L89.71712025165557,113.0816353768275L91.56576664447785,117.86039773780445L93.41441303730012,63.57035249971102L95.26305943012237,16.986759685192283L97.11170582294464,-1.9746568723189895L98.96035221576692,-2.077483714012525L100.80899860858916,11.561095572441516L102.65764500141144,27.700595919289395L104.50629139423371,31.015886720910935L106.35493778705597,39.649850690896606L108.20358417987823,50.08338127006667L110.05223057270051,63.878496025018094L111.90087696552277,75.1536748577267L113.74952335834503,81.50052229940754L115.59816975116729,90.30749585041112L117.44681614398957,69.3153369481103L119.29546253681183,34.21412275247353L121.14410892963409,32.28942878031941L122.99275532245636,12.009808890771573L124.84140171527862,13.393106678180338L126.69004810810088,37.64056583955107L128.53869450092316,56.6032829636664L130.38734089374543,63.09852837853774L132.23598728656768,75.10815909819534L134.08463367938995,88.40790528346402L135.93328007221223,99.89100712220777L137.78192646503447,109.34744618954333L139.63057285785675,117.46113140544817L141.47921925067902,123.82220845947579L143.32786564350127,129.01188070760617L145.17651203632357,133.55750112090143L147.02515842914582,137.0826785460013L148.87380482196806,127.69947145120344L150.72245121479037,132.7687317704564L152.57109760761261,136.7421870086487L154.41974400043486,139.97550413997396L156.26839039325716,142.93238354206022L158.1170367860794,145.23664134346166L159.96568317890166,147.17129476589295L161.81432957172396,148.78637132504625L163.6629759645462,150.01731371522558L165.51162235736845,150.8156351651971L167.36026875019076,151.76696443013282L169.208915143013,135.3261686553759L171.05756153583525,137.73552976498797L172.90620792865755,140.92853175758177L174.7548543214798,143.68107026771767L176.60350071430207,145.96723145240176L178.45214710712435,147.905416660941L180.3007934999466,148.44057425778416L182.14943989276887,149.88547676029802L183.99808628559114,151.05908899183535L185.8467326784134,151.9731271740389L187.69537907123566,152.76850412658067L189.5440254640579,153.4689653892853L191.39267185688018,154.02618226915533L193.24131824970246,154.48470738645568L195.0899646425247,127.20252602342428L196.93861103534698,106.70370637655576L198.78725742816926,91.66533826581525L200.6359038209915,81.05237625031779L202.48455021381378,94.28311588252038L204.33319660663605,105.28098657510826L206.1818429994583,114.28685371522846L208.03048939228057,121.76684869511574L209.87913578510285,103.37341698174627L211.7277821779251,112.6539418367779L213.57642857074737,95.42461600159533L215.42507496356964,105.86046928139201L217.2737213563919,114.76305922950851L219.1223677492142,122.093625196118L220.97101414203644,100.47754241929393L222.81966053485868,58.169937783894746L224.668306927681,55.580260286417136L226.51695332050323,56.93241653012158L228.36559971332548,73.93673584681204L230.21424610614778,64.58291398986134L232.06289249897003,79.575121746995L233.91153889179228,92.99963729612718L235.76018528461458,104.18932606485393L237.60883167743683,113.36650208781388L239.45747807025907,102.14176036927289L241.30612446308137,111.55856777542475L243.15477085590362,99.52147064664122L245.00341724872587,109.1084872031734L246.85206364154817,117.16789052145631L248.70071003437042,102.31282301702277L250.54935642719266,111.5951715780178L252.39800282001497,91.3121540273484L254.2466492128372,82.75782162793384L256.0952956056595,79.14986680657667" fill="none"></path></g></g></g></g><g opacity="0.2"><g><g><g><path style="fill: none;" stroke="rgb(51, 187, 238)" stroke-width="2px" d="M36.106374859809875,81.64755083576128L37.955021252632136,44.79819496497422L39.80366764545441,7.75958958965816L41.65231403827667,-21.23450221929207L43.50096043109894,9.11575573799239L45.34960682392121,50.26099738239336L47.19825321674347,20.584647613217303L49.046899609565735,96.65966730932969L50.895546002388,115.99619794457983L52.74419239521027,127.37547373113081L54.59283878803253,126.99305176879358L56.4414851808548,86.97349376996863L58.290131573677066,84.36627742630701L60.138777966499326,-37.27784554135831L61.9874243593216,39.10742937259092L63.83607075214386,87.80394219007995L65.68471714496613,60.767805960268014L67.53336353778839,66.89024037496263L69.38200993061065,8.209145639307227L71.23065632343292,100.21183552134207L73.07930271625519,24.45225965864232L74.92794910907746,18.518246969344332L76.77659550189972,131.47555974795122L78.62524189472198,139.37477708219487L80.47388828754426,96.18965671735279L82.32253468036652,145.1578280510339L84.17118107318878,137.3523582031264L86.01982746601105,118.97741149846738L87.86847385883333,115.81196310204092L89.71712025165557,148.89106919924367L91.56576664447785,140.16646684387473L93.41441303730012,-189.97643856873913L98.96035221576692,-2.5582334132659583L100.80899860858916,75.34155939767236L102.65764500141144,103.19173242653729L104.50629139423371,46.52544610057245L106.35493778705597,80.04668597783105L108.20358417987823,98.9055700585285L110.05223057270051,128.43671057237532L111.90087696552277,127.92315159995847L113.74952335834503,111.20655991372988L115.59816975116729,131.53014218428913L117.44681614398957,-28.94648851044177L119.29546253681183,-130.09631175830393L121.14410892963409,23.279584551307806L122.99275532245636,-82.9250659697252L124.84140171527862,19.868858599732636L126.69004810810088,151.1541408674389L128.53869450092316,145.37772187905773L130.38734089374543,93.50651863109775L132.23598728656768,131.33267787163172L134.08463367938995,150.67271907019486L135.93328007221223,153.6512513395016L137.78192646503447,153.6197222520791L139.63057285785675,155.44718639888498L141.47921925067902,153.60313405313516L143.32786564350127,153.30865949970828L145.17651203632357,154.8390362277509L147.02515842914582,153.58676929457297L148.87380482196806,83.76932870390722L150.72245121479037,156.5019414071094L152.57109760761261,155.34508801573148L154.41974400043486,155.11324406373458L156.26839039325716,156.7759078075128L158.1170367860794,156.0247269247714L159.96568317890166,156.2289692414247L161.81432957172396,156.34785161503115L163.6629759645462,155.7803530659988L165.51162235736845,154.55322617496572L167.36026875019076,156.2209102979585L169.208915143013,58.35342016564261L171.05756153583525,149.0157121920542L172.90620792865755,155.87757756210078L174.7548543214798,156.56794873256334L176.60350071430207,156.6706180883702L178.45214710712435,156.97964436067622L180.3007934999466,150.94608413104743L182.14943989276887,156.6502460240356L183.99808628559114,156.55372704281345L185.8467326784134,156.25248709140214L187.69537907123566,156.49231392903394L189.5440254640579,156.74839731972426L191.39267185688018,156.63497016243437L193.24131824970246,156.63143846413558L195.0899646425247,-0.5276792048625197L196.93861103534698,10.731964501868296L198.78725742816926,21.25843583333552L200.6359038209915,31.36441935917738L202.48455021381378,156.22703157093312L204.33319660663605,156.7710163938877L206.1818429994583,156.45068545819953L208.03048939228057,156.78682466030784L209.87913578510285,17.25871503711032L211.7277821779251,156.10367139209274L213.57642857074737,14.76004573097505L215.42507496356964,154.71923656764446L217.2737213563919,156.44336647354785L219.1223677492142,156.4140020585484L220.97101414203644,-0.7250265487295267L222.81966053485868,-139.90657418832077L224.668306927681,43.45586112590921L226.51695332050323,63.26296620269016L228.36559971332548,153.54786704945323L230.21424610614778,20.790020815628168L232.06289249897003,149.76591252392575L233.91153889179228,155.8507782126916L235.76018528461458,156.57741434757705L237.60883167743683,156.33237162039663L239.45747807025907,49.58956053488293L241.30612446308137,155.64634788370367L243.15477085590362,43.165970474407594L245.00341724872587,153.99315561275114L246.85206364154817,154.90055150177207L248.70071003437042,32.764097897554485L250.54935642719266,155.05343983317354L252.39800282001497,-3.649246309676288L254.2466492128372,42.70799267184701L256.0952956056595,62.258078326439126" fill="none"></path></g></g></g></g></g></g><g transform="translate(41, 176)" clip-path="url(#clip_1)"><clipPath id="clip_1"><rect width="288" height="23"></rect></clipPath><g><g><line x1="0" y1="0" x2="0" y2="5" style="visibility: inherit;" fill="rgb(0, 0, 0)" stroke="rgb(204, 204, 204)" stroke-width="1px"></line><line x1="36.106374859809875" y1="0" x2="36.106374859809875" y2="5" style="visibility: inherit;" fill="rgb(0, 0, 0)" stroke="rgb(204, 204, 204)" stroke-width="1px"></line><line x1="72.21274971961975" y1="0" x2="72.21274971961975" y2="5" style="visibility: inherit;" fill="rgb(0, 0, 0)" stroke="rgb(204, 204, 204)" stroke-width="1px"></line><line x1="108.31912457942963" y1="0" x2="108.31912457942963" y2="5" style="visibility: inherit;" fill="rgb(0, 0, 0)" stroke="rgb(204, 204, 204)" stroke-width="1px"></line><line x1="144.4254994392395" y1="0" x2="144.4254994392395" y2="5" style="visibility: inherit;" fill="rgb(0, 0, 0)" stroke="rgb(204, 204, 204)" stroke-width="1px"></line><line x1="180.53187429904938" y1="0" x2="180.53187429904938" y2="5" style="visibility: inherit;" fill="rgb(0, 0, 0)" stroke="rgb(204, 204, 204)" stroke-width="1px"></line><line x1="216.63824915885925" y1="0" x2="216.63824915885925" y2="5" style="visibility: inherit;" fill="rgb(0, 0, 0)" stroke="rgb(204, 204, 204)" stroke-width="1px"></line><line x1="252.74462401866913" y1="0" x2="252.74462401866913" y2="5" style="visibility: inherit;" fill="rgb(0, 0, 0)" stroke="rgb(204, 204, 204)" stroke-width="1px"></line><line x1="288.850998878479" y1="0" x2="288.850998878479" y2="5" style="visibility: inherit;" fill="rgb(0, 0, 0)" stroke="rgb(204, 204, 204)" stroke-width="1px"></line></g><g transform="translate(0, 8)"><text style="text-anchor: middle; visibility: hidden; font-family: Roboto, sans-serif; font-size: 12px; font-weight: 200;" x="0" y="0" dx="0em" dy="0.95em" fill="rgb(255, 255, 255)" stroke="none" stroke-width="1px">-5k</text><text style="text-anchor: middle; visibility: inherit; font-family: Roboto, sans-serif; font-size: 12px; font-weight: 200;" x="36.106374859809875" y="0" dx="0em" dy="0.95em" fill="rgb(255, 255, 255)" stroke="none" stroke-width="1px">0</text><text style="text-anchor: middle; visibility: inherit; font-family: Roboto, sans-serif; font-size: 12px; font-weight: 200;" x="72.21274971961975" y="0" dx="0em" dy="0.95em" fill="rgb(255, 255, 255)" stroke="none" stroke-width="1px">5k</text><text style="text-anchor: middle; visibility: inherit; font-family: Roboto, sans-serif; font-size: 12px; font-weight: 200;" x="108.31912457942963" y="0" dx="0em" dy="0.95em" fill="rgb(255, 255, 255)" stroke="none" stroke-width="1px">10k</text><text style="text-anchor: middle; visibility: inherit; font-family: Roboto, sans-serif; font-size: 12px; font-weight: 200;" x="144.4254994392395" y="0" dx="0em" dy="0.95em" fill="rgb(255, 255, 255)" stroke="none" stroke-width="1px">15k</text><text style="text-anchor: middle; visibility: inherit; font-family: Roboto, sans-serif; font-size: 12px; font-weight: 200;" x="180.53187429904938" y="0" dx="0em" dy="0.95em" fill="rgb(255, 255, 255)" stroke="none" stroke-width="1px">20k</text><text style="text-anchor: middle; visibility: inherit; font-family: Roboto, sans-serif; font-size: 12px; font-weight: 200;" x="216.63824915885925" y="0" dx="0em" dy="0.95em" fill="rgb(255, 255, 255)" stroke="none" stroke-width="1px">25k</text><text style="text-anchor: middle; visibility: inherit; font-family: Roboto, sans-serif; font-size: 12px; font-weight: 200;" x="252.74462401866913" y="0" dx="0em" dy="0.95em" fill="rgb(255, 255, 255)" stroke="none" stroke-width="1px">30k</text><text style="text-anchor: middle; visibility: hidden; font-family: Roboto, sans-serif; font-size: 12px; font-weight: 200;" x="288.850998878479" y="0" dx="0em" dy="0.95em" fill="rgb(255, 255, 255)" stroke="none" stroke-width="1px">35k</text></g><line x1="0" y1="0" x2="288.850998878479" y2="0" fill="rgb(0, 0, 0)" stroke="rgb(204, 204, 204)" stroke-width="1px"></line></g></g></g></g></svg>