<svg viewBox="0 0 330 200" xmlns="http://www.w3.org/2000/svg"><g><g><g><g><g><line x1="61.91500186920166" y1="176.89999961853027" x2="56.91500186920166" y2="176.89999961853027" style="visibility: inherit;" fill="rgb(0, 0, 0)" stroke="rgb(204, 204, 204)" stroke-width="1px"></line><line x1="61.91500186920166" y1="165.10666631062824" x2="56.91500186920166" y2="165.10666631062824" style="visibility: inherit;" fill="rgb(0, 0, 0)" stroke="rgb(204, 204, 204)" stroke-width="1px"></line><line x1="61.91500186920166" y1="153.3133330027262" x2="56.91500186920166" y2="153.3133330027262" style="visibility: inherit;" fill="rgb(0, 0, 0)" stroke="rgb(204, 204, 204)" stroke-width="1px"></line><line x1="61.91500186920166" y1="141.51999969482424" x2="56.91500186920166" y2="141.51999969482424" style="visibility: inherit;" fill="rgb(0, 0, 0)" stroke="rgb(204, 204, 204)" stroke-width="1px"></line><line x1="61.91500186920166" y1="129.7266663869222" x2="56.91500186920166" y2="129.7266663869222" style="visibility: inherit;" fill="rgb(0, 0, 0)" stroke="rgb(204, 204, 204)" stroke-width="1px"></line><line x1="61.91500186920166" y1="117.93333307902017" x2="56.91500186920166" y2="117.93333307902017" style="visibility: inherit;" fill="rgb(0, 0, 0)" stroke="rgb(204, 204, 204)" stroke-width="1px"></line><line x1="61.91500186920166" y1="106.13999977111816" x2="56.91500186920166" y2="106.13999977111816" style="visibility: inherit;" fill="rgb(0, 0, 0)" stroke="rgb(204, 204, 204)" stroke-width="1px"></line><line x1="61.91500186920166" y1="94.34666646321617" x2="56.91500186920166" y2="94.34666646321617" style="visibility: inherit;" fill="rgb(0, 0, 0)" stroke="rgb(204, 204, 204)" stroke-width="1px"></line><line x1="61.91500186920166" y1="82.55333315531414" x2="56.91500186920166" y2="82.55333315531414" style="visibility: inherit;" fill="rgb(0, 0, 0)" stroke="rgb(204, 204, 204)" stroke-width="1px"></line><line x1="61.91500186920166" y1="70.75999984741212" x2="56.91500186920166" y2="70.75999984741212" style="visibility: inherit;" fill="rgb(0, 0, 0)" stroke="rgb(204, 204, 204)" stroke-width="1px"></line><line x1="61.91500186920166" y1="58.9666665395101" x2="56.91500186920166" y2="58.9666665395101" style="visibility: inherit;" fill="rgb(0, 0, 0)" stroke="rgb(204, 204, 204)" stroke-width="1px"></line><line x1="61.91500186920166" y1="47.17333323160808" x2="56.91500186920166" y2="47.17333323160808" style="visibility: inherit;" fill="rgb(0, 0, 0)" stroke="rgb(204, 204, 204)" stroke-width="1px"></line><line x1="61.91500186920166" y1="35.379999923706066" x2="56.91500186920166" y2="35.379999923706066" style="visibility: inherit;" fill="rgb(0, 0, 0)" stroke="rgb(204, 204, 204)" stroke-width="1px"></line><line x1="61.91500186920166" y1="23.586666615804052" x2="56.91500186920166" y2="23.586666615804052" style="visibility: inherit;" fill="rgb(0, 0, 0)" stroke="rgb(204, 204, 204)" stroke-width="1px"></line><line x1="61.91500186920166" y1="11.793333307902035" x2="56.91500186920166" y2="11.793333307902035" style="visibility: inherit;" fill="rgb(0, 0, 0)" stroke="rgb(204, 204, 204)" stroke-width="1px"></line><line x1="61.91500186920166" y1="0" x2="56.91500186920166" y2="0" style="visibility: inherit;" fill="rgb(0, 0, 0)" stroke="rgb(204, 204, 204)" stroke-width="1px"></line></g><g transform="translate(51.91500186920166, 0)"><text style="text-anchor: end; visibility: hidden; font-family: Roboto, sans-serif; font-size: 12px; font-weight: 200;" x="0" y="176.89999961853027" dx="0em" dy="0.3em" fill="rgb(255, 255, 255)" stroke="none" stroke-width="1px">-0.34</text><text style="text-anchor: end; visibility: inherit; font-family: Roboto, sans-serif; font-size: 12px; font-weight: 200;" x="0" y="165.10666631062824" dx="0em" dy="0.3em" fill="rgb(255, 255, 255)" stroke="none" stroke-width="1px">-0.32</text><text style="text-anchor: end; visibility: hidden; font-family: Roboto, sans-serif; font-size: 12px; font-weight: 200;" x="0" y="153.3133330027262" dx="0em" dy="0.3em" fill="rgb(255, 255, 255)" stroke="none" stroke-width="1px">-0.3</text><text style="text-anchor: end; visibility: hidden; font-family: Roboto, sans-serif; font-size: 12px; font-weight: 200;" x="0" y="141.51999969482424" dx="0em" dy="0.3em" fill="rgb(255, 255, 255)" stroke="none" stroke-width="1px">-0.28</text><text style="text-anchor: end; visibility: inherit; font-family: Roboto, sans-serif; font-size: 12px; font-weight: 200;" x="0" y="129.7266663869222" dx="0em" dy="0.3em" fill="rgb(255, 255, 255)" stroke="none" stroke-width="1px">-0.26</text><text style="text-anchor: end; visibility: hidden; font-family: Roboto, sans-serif; font-size: 12px; font-weight: 200;" x="0" y="117.93333307902017" dx="0em" dy="0.3em" fill="rgb(255, 255, 255)" stroke="none" stroke-width="1px">-0.24</text><text style="text-anchor: end; visibility: hidden; font-family: Roboto, sans-serif; font-size: 12px; font-weight: 200;" x="0" y="106.13999977111816" dx="0em" dy="0.3em" fill="rgb(255, 255, 255)" stroke="none" stroke-width="1px">-0.22</text><text style="text-anchor: end; visibility: inherit; font-family: Roboto, sans-serif; font-size: 12px; font-weight: 200;" x="0" y="94.34666646321617" dx="0em" dy="0.3em" fill="rgb(255, 255, 255)" stroke="none" stroke-width="1px">-0.2</text><text style="text-anchor: end; visibility: hidden; font-family: Roboto, sans-serif; font-size: 12px; font-weight: 200;" x="0" y="82.55333315531414" dx="0em" dy="0.3em" fill="rgb(255, 255, 255)" stroke="none" stroke-width="1px">-0.18</text><text style="text-anchor: end; visibility: hidden; font-family: Roboto, sans-serif; font-size: 12px; font-weight: 200;" x="0" y="70.75999984741212" dx="0em" dy="0.3em" fill="rgb(255, 255, 255)" stroke="none" stroke-width="1px">-0.16</text><text style="text-anchor: end; visibility: inherit; font-family: Roboto, sans-serif; font-size: 12px; font-weight: 200;" x="0" y="58.9666665395101" dx="0em" dy="0.3em" fill="rgb(255, 255, 255)" stroke="none" stroke-width="1px">-0.14</text><text style="text-anchor: end; visibility: hidden; font-family: Roboto, sans-serif; font-size: 12px; font-weight: 200;" x="0" y="47.17333323160808" dx="0em" dy="0.3em" fill="rgb(255, 255, 255)" stroke="none" stroke-width="1px">-0.12</text><text style="text-anchor: end; visibility: hidden; font-family: Roboto, sans-serif; font-size: 12px; font-weight: 200;" x="0" y="35.379999923706066" dx="0em" dy="0.3em" fill="rgb(255, 255, 255)" stroke="none" stroke-width="1px">-0.1</text><text style="text-anchor: end; visibility: inherit; font-family: Roboto, sans-serif; font-size: 12px; font-weight: 200;" x="0" y="23.586666615804052" dx="0em" dy="0.3em" fill="rgb(255, 255, 255)" stroke="none" stroke-width="1px">-0.08</text><text style="text-anchor: end; visibility: hidden; font-family: Roboto, sans-serif; font-size: 12px; font-weight: 200;" x="0" y="11.793333307902035" dx="0em" dy="0.3em" fill="rgb(255, 255, 255)" stroke="none" stroke-width="1px">-0.06</text><text style="text-anchor: end; visibility: hidden; font-family: Roboto, sans-serif; font-size: 12px; font-weight: 200;" x="0" y="0" dx="0em" dy="0.3em" fill="rgb(255, 255, 255)" stroke="none" stroke-width="1px">-0.04</text></g><line x1="61.91500186920166" y1="0" x2="61.91500186920166" y2="176.89999961853027" fill="rgb(0, 0, 0)" stroke="rgb(204, 204, 204)" stroke-width="1px"></line></g></g><g transform="translate(61, 0)" clip-path="url(#clip_0)"><clipPath id="clip_0"><rect width="268" height="176"></rect></clipPath><g><g><g><line x1="0" y1="0" x2="0" y2="176.89999961853027" fill="rgb(0, 0, 0)" stroke="rgb(189, 189, 189)" stroke-width="1px" opacity="0.25"></line><line x1="33.51062476634979" y1="0" x2="33.51062476634979" y2="176.89999961853027" fill="rgb(0, 0, 0)" stroke="rgb(189, 189, 189)" stroke-width="1px" opacity="0.25"></line><line x1="67.02124953269958" y1="0" x2="67.02124953269958" y2="176.89999961853027" fill="rgb(0, 0, 0)" stroke="rgb(189, 189, 189)" stroke-width="1px" opacity="0.25"></line><line x1="100.53187429904938" y1="0" x2="100.53187429904938" y2="176.89999961853027" fill="rgb(0, 0, 0)" stroke="rgb(189, 189, 189)" stroke-width="1px" opacity="0.25"></line><line x1="134.04249906539917" y1="0" x2="134.04249906539917" y2="176.89999961853027" fill="rgb(0, 0, 0)" stroke="rgb(189, 189, 189)" stroke-width="1px" opacity="0.25"></line><line x1="167.55312383174896" y1="0" x2="167.55312383174896" y2="176.89999961853027" fill="rgb(0, 0, 0)" stroke="rgb(189, 189, 189)" stroke-width="1px" opacity="0.25"></line><line x1="201.06374859809875" y1="0" x2="201.06374859809875" y2="176.89999961853027" fill="rgb(0, 0, 0)" stroke="rgb(189, 189, 189)" stroke-width="1px" opacity="0.25"></line><line x1="234.57437336444855" y1="0" x2="234.57437336444855" y2="176.89999961853027" fill="rgb(0, 0, 0)" stroke="rgb(189, 189, 189)" stroke-width="1px" opacity="0.25"></line><line x1="268.08499813079834" y1="0" x2="268.08499813079834" y2="176.89999961853027" fill="rgb(0, 0, 0)" stroke="rgb(189, 189, 189)" stroke-width="1px" opacity="0.25"></line></g><g><line x1="0" y1="176.89999961853027" x2="268.08499813079834" y2="176.89999961853027" fill="rgb(0, 0, 0)" stroke="rgb(189, 189, 189)" stroke-width="1px" opacity="0.25"></line><line x1="0" y1="165.10666631062824" x2="268.08499813079834" y2="165.10666631062824" fill="rgb(0, 0, 0)" stroke="rgb(189, 189, 189)" stroke-width="1px" opacity="0.25"></line><line x1="0" y1="153.3133330027262" x2="268.08499813079834" y2="153.3133330027262" fill="rgb(0, 0, 0)" stroke="rgb(189, 189, 189)" stroke-width="1px" opacity="0.25"></line><line x1="0" y1="141.51999969482424" x2="268.08499813079834" y2="141.51999969482424" fill="rgb(0, 0, 0)" stroke="rgb(189, 189, 189)" stroke-width="1px" opacity="0.25"></line><line x1="0" y1="129.7266663869222" x2="268.08499813079834" y2="129.7266663869222" fill="rgb(0, 0, 0)" stroke="rgb(189, 189, 189)" stroke-width="1px" opacity="0.25"></line><line x1="0" y1="117.93333307902017" x2="268.08499813079834" y2="117.93333307902017" fill="rgb(0, 0, 0)" stroke="rgb(189, 189, 189)" stroke-width="1px" opacity="0.25"></line><line x1="0" y1="106.13999977111816" x2="268.08499813079834" y2="106.13999977111816" fill="rgb(0, 0, 0)" stroke="rgb(189, 189, 189)" stroke-width="1px" opacity="0.25"></line><line x1="0" y1="94.34666646321617" x2="268.08499813079834" y2="94.34666646321617" fill="rgb(0, 0, 0)" stroke="rgb(189, 189, 189)" stroke-width="1px" opacity="0.25"></line><line x1="0" y1="82.55333315531414" x2="268.08499813079834" y2="82.55333315531414" fill="rgb(0, 0, 0)" stroke="rgb(189, 189, 189)" stroke-width="1px" opacity="0.25"></line><line x1="0" y1="70.75999984741212" x2="268.08499813079834" y2="70.75999984741212" fill="rgb(0, 0, 0)" stroke="rgb(189, 189, 189)" stroke-width="1px" opacity="0.25"></line><line x1="0" y1="58.9666665395101" x2="268.08499813079834" y2="58.9666665395101" fill="rgb(0, 0, 0)" stroke="rgb(189, 189, 189)" stroke-width="1px" opacity="0.25"></line><line x1="0" y1="47.17333323160808" x2="268.08499813079834" y2="47.17333323160808" fill="rgb(0, 0, 0)" stroke="rgb(189, 189, 189)" stroke-width="1px" opacity="0.25"></line><line x1="0" y1="35.379999923706066" x2="268.08499813079834" y2="35.379999923706066" fill="rgb(0, 0, 0)" stroke="rgb(189, 189, 189)" stroke-width="1px" opacity="0.25"></line><line x1="0" y1="23.586666615804052" x2="268.08499813079834" y2="23.586666615804052" fill="rgb(0, 0, 0)" stroke="rgb(189, 189, 189)" stroke-width="1px" opacity="0.25"></line><line x1="0" y1="11.793333307902035" x2="268.08499813079834" y2="11.793333307902035" fill="rgb(0, 0, 0)" stroke="rgb(189, 189, 189)" stroke-width="1px" opacity="0.25"></line><line x1="0" y1="0" x2="268.08499813079834" y2="0" fill="rgb(0, 0, 0)" stroke="rgb(189, 189, 189)" stroke-width="1px" opacity="0.25"></line></g></g></g><g><g><line x1="0" y1="-23.58666661580403" x2="268.08499813079834" y2="-23.58666661580403" fill="rgb(0, 0, 0)" stroke="rgb(153, 153, 153)" stroke-width="1.5px"></line></g></g><g><g><line x1="33.51062476634979" y1="0" x2="33.51062476634979" y2="176.89999961853027" fill="rgb(0, 0, 0)" stroke="rgb(153, 153, 153)" stroke-width="1.5px"></line></g></g><g><g><g><g><g><path style="fill: none;" stroke="rgb(51, 187, 238)" stroke-width="2px" d="M33.51062476634979,109.50467943062011L35.2263687543869,113.54708999139719L36.942112742424015,139.2067810940753L38.65785673046112,138.6326735941237L40.37360071849823,107.95459217766222L42.08934470653534,110.31588349509862L43.80508869457245,111.67441723666352L45.52083268260956,101.46359913448464L47.23657667064666,114.59873872336446L48.95232065868378,139.87089060939294L50.668064646720886,197.36853012551805L55.81529661083221,177.3073620502215L57.531040598869325,143.36179643103807L59.246784586906436,136.90803416364338L60.96252857494354,113.74221751757973L62.67827256298065,93.97626298922937L64.39401655101776,106.01339166522467L66.10976053905488,115.87699453954306L67.82550452709198,103.14798744135841L69.5412485151291,103.59446525713587L71.25699250316619,104.63553783898199L72.9727364912033,95.46227765745961L74.68848047924043,80.5964249089681L76.40422446727752,85.49598079960319L78.11996845531463,73.43033391306899L79.83571244335175,63.50955327119066L81.55145643138886,54.076526267150484L83.26720041942596,61.2957076822296L84.98294440746308,64.85873500785333L86.69868839550018,52.41630682204577L88.41443238353729,68.12925899890007L90.13017637157441,113.96919744304L91.84592035961151,131.872861668078L93.56166434764862,148.21632888522996L95.27740833568573,160.9018215874675L96.99315232372284,145.9975962254238L98.70889631175996,133.85972703267205L100.42464029979706,123.64059723891734L102.14038428783417,130.22008578936104L103.85612827587128,116.60861106819098L105.57187226390838,99.94438521196186L107.2876162519455,92.95134322139148L109.00336023998261,65.73362850908974L110.7191042280197,52.27106202902813L112.43484821605682,55.44697919582583L114.15059220409394,55.44395418448667L115.86633619213103,66.82529898862215L117.58208018016815,76.7133342419955L119.29782416820527,87.95564352251246L121.01356815624237,85.85691771251314L122.72931214427948,89.57705031201476L124.4450561323166,108.94778690444724L126.1608001203537,155.9692180980404L127.8765441083908,141.17617058172485L129.59228809642792,146.6921238019066L131.30803208446503,169.8143515102675L133.02377607250213,169.27963872232272L134.73952006053926,149.69189259777778L136.45526404857637,110.52940900809298L138.17100803661344,97.65347961453507L139.88675202465058,80.95171908052066L141.60249601268768,65.01783940093588L143.31824000072478,58.90069732730615L145.03398398876192,58.56149975475341L146.74972797679902,46.73750440331172L148.4654719648361,37.9899482334139L150.18121595287323,53.73652971313931L151.89695994091034,63.092453939207324L153.61270392894744,57.28518900460584L155.32844791698457,54.85438594761761L157.04419190502168,54.19228310847791L158.75993589305875,83.75543860919977L160.47567988109589,69.74700036546554L162.191423869133,71.27363360462671L163.90716785717012,81.36837436554751L165.62291184520723,80.01034099036434L167.33865583324433,72.67858854265008L169.05439982128144,69.0821175836258L170.77014380931854,70.42749584792041L172.48588779735564,68.38285492793239L174.20163178539278,73.30900338181488L175.91737577342988,63.09939000429964L177.63311976146696,65.87998442868148L179.3488637495041,62.139298516784095L181.0646077375412,41.10943501822789L182.7803517255783,35.030833640579665L184.49609571361543,28.721145650017313L186.21183970165254,32.39904523971106L187.9275836896896,45.61632617306743L189.64332767772675,36.99458702078267L191.35907166576385,33.58995796525568L193.07481565380095,26.516589858327986L194.7905596418381,23.80033967218385L196.5063036298752,25.153144988558253L198.22204761791227,22.53417598503149L199.9377916059494,63.0115837540121L201.6535355939865,48.452302210433864L203.36927958202364,44.6743746381112L205.08502357006074,35.87001928456031L206.80076755809785,26.733516518346356L208.51651154613495,18.42583524885055L210.23225553417205,26.338615389290776L211.94799952220916,19.26878494163828L213.6637435102463,26.58807993353736L215.3794874982834,58.36557074824048L217.09523148632047,79.00088521159296L218.8109754743576,54.144329408194295L220.5267194623947,32.2738591188216L222.2424634504318,28.63654048108005L223.95820743846895,24.58216290710609L225.67395142650605,23.25403365216734L227.38969541454313,16.128022261130823L229.10543940258026,14.70066616213684L230.82118339061736,15.854082794307917L232.53692737865447,23.690676998501278L234.2526713666916,12.372399030034416L235.9684153547287,7.904151197729251L237.6841593427658,3.5654132396830858" fill="none"></path></g></g></g></g><g opacity="0.2"><g><g><g><path style="fill: none;" stroke="rgb(51, 187, 238)" stroke-width="2px" d="M33.51062476634979,109.5046794306201L35.2263687543869,116.87803629347756L36.942112742424015,177.77268098881407L38.65785673046112,137.44860430403335L40.37360071849823,30.539661440260232L42.08934470653534,117.17149510229999L43.80508869457245,116.0439307241652L45.52083268260956,65.98847595210634L47.23657667064666,163.02533461940087L48.95232065868378,237.46994204453597L52.38380863475799,315.7731488261079L54.09955262279511,124.74162172875911L55.81529661083221,70.41800988608833L57.531040598869325,-4.9926488596820455L59.246784586906436,108.34897998134784L60.96252857494354,10.182964343275291L62.67827256298065,4.879909819570287L64.39401655101776,160.64070721278023L66.10976053905488,160.8895997877459L67.82550452709198,44.79403778122344L69.5412485151291,105.64892697082557L71.25699250316619,109.44073848350348L72.9727364912033,53.015080086111254L74.68848047924043,11.66532980549124L76.40422446727752,108.25336291572698L78.11996845531463,17.309359512454538L79.83571244335175,17.311718746246047L81.55145643138886,10.108255273210844L83.26720041942596,94.97135115230479L84.98294440746308,81.49005662392385L86.69868839550018,-5.692647145035701L88.41443238353729,141.54435718014548L90.13017637157441,328.22266298961756L95.27740833568573,220.23713189237048L96.99315232372284,76.2728022051188L98.70889631175996,77.06872069786543L100.42464029979706,75.82166574121769L102.14038428783417,161.01069833565867L103.85612827587128,52.904929788865964L105.57187226390838,21.94847863828744L107.2876162519455,60.21913446593408L109.00336023998261,-61.669291070931486L110.7191042280197,-10.747844828163043L112.43484821605682,70.3140278649013L114.15059220409394,55.42979321527238L115.86633619213103,120.10577565539305L117.58208018016815,123.00380220988733L119.29782416820527,140.58679822248786L121.01356815624237,76.03157164827675L122.72931214427948,106.9932948296743L124.4450561323166,199.6348789765924L126.1608001203537,376.10865950621576L127.8765441083908,71.9194579031896L129.59228809642792,172.51630810133193L131.30803208446503,278.0666705898401L133.02377607250213,166.77624395964125L134.73952006053926,57.98663150859613L136.45526404857637,-72.82056325189976L138.17100803661344,37.37116776225739L139.88675202465058,2.757592306349725L141.60249601268768,-9.581311355557697L143.31824000072478,30.26146955401788L145.03398398876192,56.97344383907986L146.74972797679902,-8.62013556509029L148.4654719648361,-2.964423916503827L150.18121595287323,127.45901972067597L151.89695994091034,106.89512082910622L153.61270392894744,30.09666587061548L155.32844791698457,43.47382021688481L157.04419190502168,51.09244074016087L158.75993589305875,222.16465665354647L160.47567988109589,4.162078889971295L162.191423869133,78.42104932325087L163.90716785717012,128.63009592650369L165.62291184520723,73.65227777950136L167.33865583324433,38.35266613319237L169.05439982128144,52.24409829913856L170.77014380931854,76.72631108288846L172.48588779735564,58.810219376424556L174.20163178539278,96.37233183543171L175.91737577342988,15.299841491965822L177.63311976146696,78.89822083267988L179.3488637495041,44.62608845276569L181.0646077375412,-57.34855647629742L182.7803517255783,6.5719285707018855L184.49609571361543,-0.8196651254303584L186.21183970165254,49.618301842702095L187.9275836896896,107.49723068222784L189.64332767772675,-3.3708271989056264L191.35907166576385,17.6501040443645L193.07481565380095,-6.5996330487222L194.7905596418381,11.083350323380216L196.5063036298752,31.486733449947028L198.22204761791227,10.272639390827235L199.9377916059494,252.519446073623L201.6535355939865,-19.711606441474586L203.36927958202364,26.98680472445415L205.08502357006074,-5.35037152750873L208.51651154613495,-20.469217864037375L210.23225553417205,63.38481323839173L211.94799952220916,-13.8308757308146L213.6637435102463,60.85568825373994L215.3794874982834,207.14200483476432L217.09523148632047,175.61167555609998L218.8109754743576,-62.229545392709184L220.5267194623947,-70.1197062566776L222.2424634504318,11.607275959455851L223.95820743846895,5.600304274155025L225.67395142650605,17.035973960975525L227.38969541454313,-17.23466742272266L229.10543940258026,8.018044427678081L230.82118339061736,21.254169752859273L232.53692737865447,60.38018622073696L234.2526713666916,-40.617720541884864" fill="none"></path></g></g></g></g></g></g><g transform="translate(61, 176)" clip-path="url(#clip_1)"><clipPath id="clip_1"><rect width="268" height="23"></rect></clipPath><g><g><line x1="0" y1="0" x2="0" y2="5" style="visibility: inherit;" fill="rgb(0, 0, 0)" stroke="rgb(204, 204, 204)" stroke-width="1px"></line><line x1="33.51062476634979" y1="0" x2="33.51062476634979" y2="5" style="visibility: inherit;" fill="rgb(0, 0, 0)" stroke="rgb(204, 204, 204)" stroke-width="1px"></line><line x1="67.02124953269958" y1="0" x2="67.02124953269958" y2="5" style="visibility: inherit;" fill="rgb(0, 0, 0)" stroke="rgb(204, 204, 204)" stroke-width="1px"></line><line x1="100.53187429904938" y1="0" x2="100.53187429904938" y2="5" style="visibility: inherit;" fill="rgb(0, 0, 0)" stroke="rgb(204, 204, 204)" stroke-width="1px"></line><line x1="134.04249906539917" y1="0" x2="134.04249906539917" y2="5" style="visibility: inherit;" fill="rgb(0, 0, 0)" stroke="rgb(204, 204, 204)" stroke-width="1px"></line><line x1="167.55312383174896" y1="0" x2="167.55312383174896" y2="5" style="visibility: inherit;" fill="rgb(0, 0, 0)" stroke="rgb(204, 204, 204)" stroke-width="1px"></line><line x1="201.06374859809875" y1="0" x2="201.06374859809875" y2="5" style="visibility: inherit;" fill="rgb(0, 0, 0)" stroke="rgb(204, 204, 204)" stroke-width="1px"></line><line x1="234.57437336444855" y1="0" x2="234.57437336444855" y2="5" style="visibility: inherit;" fill="rgb(0, 0, 0)" stroke="rgb(204, 204, 204)" stroke-width="1px"></line><line x1="268.08499813079834" y1="0" x2="268.08499813079834" y2="5" style="visibility: inherit;" fill="rgb(0, 0, 0)" stroke="rgb(204, 204, 204)" stroke-width="1px"></line></g><g transform="translate(0, 8)"><text style="text-anchor: middle; visibility: hidden; font-family: Roboto, sans-serif; font-size: 12px; font-weight: 200;" x="0" y="0" dx="0em" dy="0.95em" fill="rgb(255, 255, 255)" stroke="none" stroke-width="1px">-5k</text><text style="text-anchor: middle; visibility: inherit; font-family: Roboto, sans-serif; font-size: 12px; font-weight: 200;" x="33.51062476634979" y="0" dx="0em" dy="0.95em" fill="rgb(255, 255, 255)" stroke="none" stroke-width="1px">0</text><text style="text-anchor: middle; visibility: inherit; font-family: Roboto, sans-serif; font-size: 12px; font-weight: 200;" x="67.02124953269958" y="0" dx="0em" dy="0.95em" fill="rgb(255, 255, 255)" stroke="none" stroke-width="1px">5k</text><text style="text-anchor: middle; visibility: inherit; font-family: Roboto, sans-serif; font-size: 12px; font-weight: 200;" x="100.53187429904938" y="0" dx="0em" dy="0.95em" fill="rgb(255, 255, 255)" stroke="none" stroke-width="1px">10k</text><text style="text-anchor: middle; visibility: inherit; font-family: Roboto, sans-serif; font-size: 12px; font-weight: 200;" x="134.04249906539917" y="0" dx="0em" dy="0.95em" fill="rgb(255, 255, 255)" stroke="none" stroke-width="1px">15k</text><text style="text-anchor: middle; visibility: inherit; font-family: Roboto, sans-serif; font-size: 12px; font-weight: 200;" x="167.55312383174896" y="0" dx="0em" dy="0.95em" fill="rgb(255, 255, 255)" stroke="none" stroke-width="1px">20k</text><text style="text-anchor: middle; visibility: inherit; font-family: Roboto, sans-serif; font-size: 12px; font-weight: 200;" x="201.06374859809875" y="0" dx="0em" dy="0.95em" fill="rgb(255, 255, 255)" stroke="none" stroke-width="1px">25k</text><text style="text-anchor: middle; visibility: inherit; font-family: Roboto, sans-serif; font-size: 12px; font-weight: 200;" x="234.57437336444855" y="0" dx="0em" dy="0.95em" fill="rgb(255, 255, 255)" stroke="none" stroke-width="1px">30k</text><text style="text-anchor: middle; visibility: hidden; font-family: Roboto, sans-serif; font-size: 12px; font-weight: 200;" x="268.08499813079834" y="0" dx="0em" dy="0.95em" fill="rgb(255, 255, 255)" stroke="none" stroke-width="1px">35k</text></g><line x1="0" y1="0" x2="268.08499813079834" y2="0" fill="rgb(0, 0, 0)" stroke="rgb(204, 204, 204)" stroke-width="1px"></line></g></g></g></g></svg>